<svg width="38" height="38" viewBox="0 0 38 38" fill="none" xmlns="http://www.w3.org/2000/svg">
<path d="M33.4119 21.466C33.4119 25.7783 30.6077 31.7378 27.2171 34.9934C25.7134 36.4392 24.0939 37.3515 22.5521 37.3515C21.5776 37.3515 20.6056 37.1949 19.7695 36.9425C18.6237 36.5957 17.4054 36.5957 16.2597 36.9425C15.4235 37.1949 14.4515 37.3515 13.4771 37.3515C11.8618 37.3515 10.1601 36.3493 8.59584 34.7816C5.30306 31.4845 2.61731 25.6858 2.61731 21.466C2.61731 15.2402 6.3416 11.4787 9.8436 10.5708C11.5211 10.1359 13.4676 10.4161 15.0396 10.825C16.6652 11.2487 18.3548 11.3196 20.0012 11.0377C20.3333 10.9806 20.6627 10.9098 20.9896 10.825C22.5616 10.416 24.5072 10.1358 26.1856 10.5708C29.6877 11.4787 33.4119 15.2402 33.4119 21.466Z" fill="#F94848"/>
<path d="M27.217 34.9932C23.0561 35.7284 19.8513 35.5247 17.4365 34.9399C13.4932 33.9851 10.5598 30.6592 10.0709 26.6316C8.84655 16.5444 15.4374 13.6077 15.4374 13.6077C17.3691 14.4854 19.5412 14.0167 19.5412 14.0167C18.1551 12.6314 20.0012 11.0378 20.0012 11.0378C18.3548 11.3197 16.6652 11.2488 15.0396 10.8251C13.4676 10.416 11.5211 10.1359 9.8436 10.5709C6.3416 11.4788 2.61731 15.2403 2.61731 21.4661C2.61731 27.6911 8.4618 37.3515 13.4771 37.3515C14.4516 37.3515 15.4236 37.195 16.2597 36.9425C17.4054 36.5958 18.6238 36.5958 19.7695 36.9425C20.6057 37.195 21.5776 37.3515 22.5521 37.3515C24.0939 37.3515 25.7135 36.4392 27.2172 34.9935C27.217 34.9932 27.2171 34.9934 27.217 34.9932Z" fill="#DD2C2C"/>
<path d="M35.3825 1.03403C35.3825 1.03403 34.5178 7.06184 29.9634 8.81637C25.6097 10.4939 21.7289 5.95851 20.137 6.31565C20.0652 6.33035 19.9986 6.35632 19.9363 6.39351C19.9338 6.3944 19.9329 6.39521 19.9329 6.39521L19.9338 6.39173C19.9873 6.22919 21.7332 1.02884 26.2167 0.688173C30.7711 0.34224 33.2493 2.41754 35.3825 1.03403Z" fill="#23B75F"/>
<path d="M35.3825 1.03403C35.3825 1.03403 32.6155 4.40638 28.7243 4.40638C25.3027 4.40638 21.1011 5.94382 20.137 6.31565C20.0211 6.35974 19.9528 6.38742 19.9363 6.39351C19.9338 6.3944 19.9329 6.39521 19.9329 6.39521L19.9338 6.39173C19.9873 6.22919 21.7332 1.02884 26.2167 0.688173C30.7711 0.34224 33.2493 2.41754 35.3825 1.03403Z" fill="#A3E261"/>
<path d="M30.4241 18.6352C30.2541 16.9247 29.219 15.6273 28.1122 15.7373C27.0054 15.8473 26.2459 17.3231 26.4159 19.0336C26.5859 20.7441 27.621 22.0415 28.7278 21.9315C29.8346 21.8215 30.5941 20.3457 30.4241 18.6352Z" fill="#FC8181"/>
<path d="M31.8372 15.0949C31.5167 15.2547 31.3863 15.644 31.5461 15.9646C32.3538 17.5849 32.7633 19.4358 32.7633 21.4659C32.7633 24.338 31.4439 28.1401 29.3201 31.3883C27.1441 34.7161 24.6141 36.7029 22.5524 36.7029C21.6934 36.7029 20.7717 36.5673 19.9572 36.3213C18.6864 35.9375 17.3429 35.9375 16.0721 36.3213C15.2575 36.5674 14.3358 36.7029 13.4768 36.7029C11.4151 36.7029 8.88511 34.716 6.70909 31.3883C4.58518 28.1401 3.26587 24.338 3.26587 21.4659C3.26587 18.7524 4.01659 16.3134 5.43676 14.4126C6.63161 12.8134 8.29722 11.6421 10.0063 11.1989C11.2832 10.8678 12.9669 10.9557 14.8758 11.4527C15.0844 11.507 15.2979 11.5567 15.51 11.6003C15.8608 11.6722 16.2037 11.4464 16.2758 11.0955C16.3479 10.7447 16.1219 10.4019 15.771 10.3297C15.5809 10.2906 15.3897 10.2462 15.2027 10.1975C13.0502 9.63705 11.1923 9.55163 9.68073 9.94343C7.66221 10.4667 5.78596 11.7783 4.39763 13.6362C2.80868 15.7629 1.96875 18.4703 1.96875 21.4659C1.96875 24.5764 3.36911 28.6505 5.6235 32.0981C8.07598 35.8488 10.9384 37.9999 13.4767 37.9999C14.4735 37.9999 15.5007 37.8487 16.447 37.563C17.4723 37.2533 18.5565 37.2533 19.5819 37.563C20.5284 37.8489 21.5554 37.9999 22.5522 37.9999C25.0906 37.9999 27.953 35.8488 30.4055 32.0981C32.6597 28.6504 34.0602 24.5764 34.0602 21.4659C34.0602 19.2332 33.6049 17.1876 32.7068 15.3859C32.5471 15.0654 32.1578 14.9351 31.8372 15.0949Z" fill="black"/>
<path d="M30.3465 14.0972C30.4747 14.2549 30.6616 14.3366 30.8501 14.3366C30.9939 14.3366 31.1386 14.2891 31.2588 14.1913C31.5368 13.9654 31.5788 13.5569 31.3529 13.279C29.9989 11.6137 28.2216 10.429 26.3484 9.94342C24.8368 9.55154 22.9789 9.63697 20.8263 10.1975C20.3599 10.319 19.8811 10.4111 19.403 10.4711C19.0476 10.5157 18.7957 10.84 18.8403 11.1954C18.8849 11.5508 19.2097 11.803 19.5646 11.7581C20.0983 11.691 20.6328 11.5883 21.1533 11.4527C23.0624 10.9557 24.7462 10.868 26.0229 11.199C27.6303 11.6158 29.1658 12.645 30.3465 14.0972Z" fill="black"/>
<path d="M35.732 0.487687C35.5177 0.350754 35.2432 0.35157 35.0297 0.489913C34.0984 1.0939 33.0521 0.872362 31.4683 0.537116C31.3306 0.507949 31.1903 0.478335 31.0472 0.448574C30.6966 0.375765 30.3532 0.601019 30.2804 0.951776C30.2076 1.30253 30.4329 1.64579 30.7836 1.7186C30.925 1.74792 31.0636 1.77731 31.1996 1.80611C32.3894 2.058 33.4654 2.28578 34.4791 2.08777C33.9914 3.83034 32.7092 7.06346 29.7305 8.21125C27.2116 9.1818 24.8446 7.82108 22.9427 6.72777C22.1797 6.28913 21.5055 5.90164 20.9064 5.73316C21.5813 4.30089 23.2553 1.56349 26.2658 1.33489C27.1418 1.26832 28.013 1.28992 28.9289 1.40072C29.2848 1.44347 29.6076 1.19031 29.6507 0.834807C29.6937 0.479226 29.4403 0.156078 29.0847 0.113031C28.0836 -0.00809348 27.1292 -0.0314723 26.1677 0.0414845C24.1094 0.197789 22.2678 1.32153 20.8419 3.291C19.9288 4.55219 19.4643 5.77198 19.3463 6.10722L17.6393 8.69953C17.1589 7.24663 16.6823 6.33597 16.644 6.26382C16.476 5.9475 16.0834 5.82727 15.767 5.99523C15.4507 6.16326 15.3305 6.5558 15.4984 6.87212C15.5145 6.90233 17.0106 9.75952 17.3125 13.5034C16.8154 13.4477 16.3584 13.3336 16.0024 13.1723C15.5727 12.9776 15.4391 12.7801 15.4391 12.7303C15.4391 12.3721 15.1488 12.0817 14.7906 12.0817C14.4324 12.0817 14.1421 12.3721 14.1421 12.7303C14.1421 13.1123 14.3143 13.8315 15.4672 14.3537C16.1582 14.6669 17.0628 14.8393 18.0142 14.8393C18.966 14.8393 19.8708 14.6669 20.562 14.3538C21.715 13.8315 21.8872 13.1124 21.8872 12.7303C21.8872 12.3722 21.5969 12.0818 21.2387 12.0818C20.8805 12.0818 20.5902 12.3722 20.5902 12.7303C20.5902 12.7802 20.4567 12.9776 20.0269 13.1723C19.6465 13.3447 19.1507 13.4627 18.6139 13.5138C18.5289 12.3613 18.3398 11.29 18.1099 10.3433L20.3486 6.94359C20.425 6.94678 20.563 6.97068 20.7956 7.06256C21.2044 7.22429 21.7105 7.51515 22.2964 7.85195C23.8177 8.7264 25.7601 9.84339 27.9429 9.84316C28.6698 9.84316 29.4237 9.71915 30.197 9.42116C35.0501 7.55107 35.987 1.38729 36.0246 1.12582C36.0607 0.874366 35.9463 0.62462 35.732 0.487687Z" fill="black"/>
</svg>
