<svg width="38" height="38" viewBox="0 0 38 38" fill="none" xmlns="http://www.w3.org/2000/svg">
<g clip-path="url(#clip0_18_146)">
<path d="M16.625 21.375C16.6253 21.7738 16.6651 22.1715 16.7437 22.5625V22.5809C16.7021 22.5809 16.6665 22.5744 16.625 22.5744V22.5625C16.0288 22.5664 15.4339 22.5087 14.8496 22.3903C13.7721 22.1492 12.8015 21.566 12.0828 20.7278C13.6667 20.5823 15.2198 20.2 16.6903 19.5938H16.7081C16.6546 20.175 16.625 20.7747 16.625 21.375Z" fill="#F6FAFD"/>
<path d="M10.0225 20.6975C10.5109 21.5965 11.1787 22.3855 11.9845 23.0158C12.7904 23.646 13.7171 24.1041 14.7072 24.3616C14.9246 24.4122 15.1169 24.5386 15.2496 24.7181C15.3823 24.8976 15.4468 25.1185 15.4315 25.3412V25.3591C15.4207 25.4814 15.3832 25.5999 15.3216 25.7062C15.2601 25.8124 15.1759 25.9039 15.0751 25.9741C14.9743 26.0443 14.8594 26.0916 14.7384 26.1125C14.6173 26.1334 14.4932 26.1276 14.3747 26.0953C13.113 25.7777 11.9315 25.2001 10.906 24.3994C9.88047 23.5987 9.03351 22.5926 8.41936 21.4456C8.35925 21.3381 8.32355 21.2186 8.31476 21.0957C8.30598 20.9728 8.32433 20.8495 8.36852 20.7345C8.41272 20.6195 8.48167 20.5156 8.57048 20.4302C8.6593 20.3448 8.76582 20.28 8.88248 20.2403L8.89436 20.2344C9.10685 20.167 9.3363 20.1764 9.54254 20.2611C9.74878 20.3457 9.91867 20.5002 10.0225 20.6975Z" fill="#FFDDB3"/>
<path d="M16.7141 10.7047C16.7902 10.7961 16.8454 10.9031 16.8759 11.0181C16.9063 11.133 16.9112 11.2533 16.8903 11.3704C16.8694 11.4875 16.8231 11.5986 16.7547 11.6959C16.6863 11.7932 16.5975 11.8744 16.4944 11.9338C15.4011 12.5753 14.1876 12.9853 12.9293 13.1385C11.671 13.2917 10.3947 13.1848 9.17938 12.8244C9.06431 12.7927 8.95767 12.7359 8.8671 12.6582C8.77653 12.5805 8.70427 12.4837 8.65547 12.3747C8.60668 12.2658 8.58257 12.1474 8.58487 12.0281C8.58716 11.9087 8.61581 11.7914 8.66875 11.6844L8.67469 11.6725C8.77555 11.4802 8.94093 11.3296 9.14181 11.2471C9.34268 11.1645 9.5662 11.1554 9.77313 11.2213C10.7295 11.5013 11.7328 11.5836 12.722 11.4631C13.7111 11.3427 14.6654 11.022 15.5266 10.5207C15.7117 10.4073 15.9307 10.3625 16.1455 10.394C16.3603 10.4254 16.5573 10.5312 16.7022 10.6929L16.7141 10.7047Z" fill="#E6C293"/>
<path d="M29.1768 15.3657C28.278 15.8541 27.489 16.5219 26.8588 17.3278C26.2287 18.1336 25.7707 19.0603 25.5134 20.0504C25.4627 20.2678 25.3363 20.4601 25.1568 20.5928C24.9773 20.7255 24.7564 20.79 24.5337 20.7747H24.5159C24.3935 20.7639 24.275 20.7264 24.1687 20.6648C24.0625 20.6033 23.971 20.5191 23.9008 20.4183C23.8306 20.3175 23.7834 20.2026 23.7624 20.0816C23.7415 19.9605 23.7473 19.8364 23.7796 19.7179C24.0972 18.4562 24.6747 17.2748 25.4753 16.2493C26.2759 15.2238 27.2818 14.3768 28.4287 13.7626C28.5362 13.7025 28.6557 13.6667 28.7786 13.658C28.9015 13.6492 29.0248 13.6675 29.1398 13.7117C29.2549 13.7559 29.3587 13.8249 29.4441 13.9137C29.5295 14.0025 29.5943 14.109 29.634 14.2257L29.6399 14.2376C29.7074 14.4501 29.6979 14.6795 29.6133 14.8857C29.5286 15.092 29.3741 15.2619 29.1768 15.3657Z" fill="#E6C293"/>
<path d="M29.5153 22.5678C29.6376 22.5787 29.7561 22.6163 29.8624 22.678C29.9687 22.7396 30.0601 22.8238 30.1303 22.9246C30.2005 23.0255 30.2478 23.1405 30.2687 23.2615C30.2896 23.3826 30.2838 23.5068 30.2515 23.6253C29.9339 24.8869 29.3564 26.0684 28.5558 27.0939C27.7552 28.1194 26.7493 28.9664 25.6024 29.5806C25.4949 29.6407 25.3754 29.6764 25.2525 29.6852C25.1296 29.694 25.0063 29.6756 24.8913 29.6315C24.7763 29.5873 24.6724 29.5183 24.587 29.4295C24.5016 29.3407 24.4368 29.2342 24.3971 29.1175L24.3912 29.1056C24.3238 28.8931 24.3332 28.6637 24.4179 28.4574C24.5025 28.2512 24.657 28.0813 24.8543 27.9775C25.7532 27.4891 26.5421 26.8212 27.1723 26.0154C27.8025 25.2096 28.2604 24.2829 28.5178 23.2928C28.5684 23.0753 28.6948 22.883 28.8743 22.7502C29.0538 22.6173 29.2747 22.5527 29.4974 22.5678H29.5153Z" fill="#FFDDB3"/>
<path d="M9.13779 9.3219C9.94634 9.7047 10.8366 9.88272 11.7302 9.84027C12.6238 9.79782 13.4932 9.53619 14.2619 9.07846C14.7494 8.76419 15.2013 8.39787 15.6097 7.98596L15.6156 7.99784C16.5924 7.07627 17.8788 6.55363 19.2215 6.53275C20.5643 6.51188 21.8662 6.99427 22.8712 7.88502C19.6115 10.2416 17.1772 14.5469 16.7081 19.5938H16.6903C15.2198 20.2 13.6667 20.5823 12.0828 20.7278C11.6005 20.1728 11.2188 19.5378 10.9547 18.8516C10.6417 18.0606 10.1463 17.3547 9.50898 16.7913C8.87161 16.2279 8.11023 15.823 7.2868 15.6094C6.46336 15.3959 5.60114 15.3798 4.77032 15.5625C3.93949 15.7452 3.16354 16.1214 2.50561 16.6606L2.47592 16.625C1.9163 15.6686 1.68531 14.5552 1.81826 13.4551C1.95122 12.355 2.44081 11.3287 3.21217 10.5331C3.95873 9.75142 4.92634 9.2165 5.98539 9.00002C7.04444 8.78354 8.14435 8.89585 9.13779 9.3219ZM15.5265 10.5213C14.6654 11.0226 13.7111 11.3433 12.7219 11.4637C11.7328 11.5842 10.7294 11.5019 9.77311 11.2219C9.56618 11.156 9.34266 11.1651 9.14178 11.2477C8.94091 11.3302 8.77553 11.4808 8.67467 11.6731L8.66873 11.685C8.61579 11.792 8.58714 11.9094 8.58484 12.0287C8.58255 12.148 8.60666 12.2664 8.65545 12.3753C8.70424 12.4843 8.77651 12.5811 8.86708 12.6588C8.95765 12.7365 9.06429 12.7933 9.17936 12.825C10.3946 13.1854 11.671 13.2923 12.9293 13.1391C14.1876 12.9859 15.401 12.5759 16.4944 11.9344C16.5974 11.875 16.6863 11.7938 16.7547 11.6965C16.8231 11.5992 16.8693 11.4881 16.8903 11.371C16.9112 11.2539 16.9063 11.1337 16.8758 11.0187C16.8454 10.9037 16.7902 10.7967 16.714 10.7053L16.7022 10.6935C16.5574 10.5317 16.3604 10.4258 16.1456 10.3942C15.9308 10.3627 15.7118 10.408 15.5265 10.5213Z" fill="#B0513E"/>
<path d="M9.13774 9.32187C8.16146 8.90224 7.08143 8.78638 6.03836 8.98937L6.02649 8.90625C6.24653 7.68643 6.83503 6.56332 7.71274 5.68812C13.5968 -0.130629 22.2477 -0.997504 26.5465 3.25968L26.9562 3.66343C27.5957 4.29229 28.062 5.07558 28.3099 5.9375V5.94343C26.3409 6.01828 24.4424 6.69602 22.8712 7.885C21.8662 6.99424 20.5642 6.51185 19.2215 6.53273C17.8787 6.5536 16.5924 7.07624 15.6156 7.99781L15.6096 7.98593C15.2012 8.39784 14.7493 8.76416 14.2618 9.07843C13.4932 9.53617 12.6238 9.79779 11.7302 9.84024C10.8366 9.8827 9.94629 9.70467 9.13774 9.32187Z" fill="#9C4837"/>
<path d="M12.0828 20.7272C12.8015 21.5654 13.7721 22.1486 14.8496 22.3897C15.4339 22.5083 16.0288 22.5662 16.6249 22.5625V22.5744C16.6665 22.5744 16.7021 22.5809 16.7437 22.5809C18.0743 22.6415 19.3375 23.1839 20.2977 24.107C21.2579 25.0301 21.8497 26.2709 21.9628 27.5981C21.2242 28.0971 20.6211 28.7716 20.2077 29.5612C19.7942 30.3507 19.5832 31.2306 19.5937 32.1219C18.5485 32.8513 17.3058 33.2448 16.0312 33.25C7.49901 33.25 0.593695 27.6094 0.593695 21.375V20.7812C0.581937 19.389 1.11842 18.0481 2.08721 17.0482C3.05601 16.0483 4.37932 15.4697 5.77119 15.4375C6.88146 15.4042 7.97499 15.7141 8.90263 16.3251C9.83026 16.9361 10.5468 17.8183 10.9546 18.8516C11.2188 19.5376 11.6005 20.1723 12.0828 20.7272ZM14.7071 24.3616C13.717 24.1041 12.7903 23.646 11.9845 23.0158C11.1786 22.3855 10.5108 21.5965 10.0224 20.6975C9.91863 20.5002 9.74874 20.3457 9.5425 20.2611C9.33626 20.1764 9.10682 20.167 8.89432 20.2344L8.88245 20.2403C8.76578 20.28 8.65927 20.3448 8.57045 20.4302C8.48163 20.5156 8.41268 20.6195 8.36849 20.7345C8.32429 20.8495 8.30594 20.9728 8.31472 21.0957C8.32351 21.2186 8.35922 21.3381 8.41932 21.4456C9.03347 22.5926 9.88043 23.5987 10.906 24.3994C11.9315 25.2001 13.1129 25.7777 14.3746 26.0953C14.4931 26.1276 14.6173 26.1334 14.7383 26.1125C14.8594 26.0916 14.9743 26.0443 15.0751 25.9741C15.1759 25.9039 15.26 25.8124 15.3216 25.7062C15.3832 25.5999 15.4207 25.4814 15.4315 25.3591V25.3412C15.4468 25.1185 15.3823 24.8976 15.2496 24.7181C15.1168 24.5386 14.9246 24.4122 14.7071 24.3616Z" fill="#C55B45"/>
<path d="M21.9628 27.5975C22.2896 27.3753 22.6401 27.1901 23.0078 27.0453C23.8743 26.7403 24.6514 26.2247 25.2691 25.5448C25.8868 24.8648 26.3258 24.042 26.5466 23.1503C26.665 22.5661 26.7227 21.9711 26.7188 21.375H26.7306C26.7649 20.0504 27.2764 18.7828 28.171 17.8053C29.0655 16.8278 30.283 16.2063 31.5994 16.055C31.7472 16.0382 31.8959 16.0303 32.0447 16.0313C34.9897 16.0313 37.4063 18.851 37.4063 21.9688C37.4063 30.5016 31.7656 37.4063 25.5313 37.4063H24.9375C23.5454 37.4176 22.2048 36.8809 21.205 35.9122C20.2052 34.9435 19.6265 33.6205 19.5938 32.2288V32.1219C19.5832 31.2306 19.7941 30.3506 20.2076 29.5609C20.6211 28.7712 21.2242 28.0965 21.9628 27.5975ZM30.2516 23.6253C30.2838 23.5068 30.2897 23.3826 30.2688 23.2615C30.2478 23.1405 30.2006 23.0255 30.1304 22.9247C30.0602 22.8238 29.9687 22.7396 29.8625 22.678C29.7562 22.6163 29.6377 22.5787 29.5153 22.5679H29.4975C29.2747 22.5527 29.0538 22.6174 28.8744 22.7502C28.6949 22.883 28.5685 23.0754 28.5178 23.2928C28.2605 24.2829 27.8025 25.2096 27.1724 26.0154C26.5422 26.8213 25.7532 27.4891 24.8544 27.9775C24.6571 28.0813 24.5026 28.2512 24.4179 28.4575C24.3333 28.6637 24.3238 28.8931 24.3913 29.1056L24.3972 29.1175C24.4368 29.2342 24.5017 29.3407 24.5871 29.4295C24.6724 29.5183 24.7763 29.5873 24.8914 29.6315C25.0064 29.6757 25.1297 29.694 25.2526 29.6852C25.3755 29.6765 25.495 29.6407 25.6025 29.5806C26.7494 28.9664 27.7553 28.1194 28.5559 27.0939C29.3564 26.0684 29.934 24.887 30.2516 23.6253Z" fill="#C55B45"/>
<path d="M25.5134 20.0503C25.7708 19.0603 26.2287 18.1336 26.8589 17.3277C27.4891 16.5219 28.278 15.8541 29.1769 15.3656C29.3742 15.2618 29.5287 15.0919 29.6133 14.8857C29.698 14.6795 29.7074 14.45 29.64 14.2375L29.6341 14.2256C29.5944 14.109 29.5296 14.0025 29.4442 13.9137C29.3588 13.8248 29.2549 13.7559 29.1399 13.7117C29.0249 13.6675 28.9016 13.6491 28.7787 13.6579C28.6558 13.6667 28.5363 13.7024 28.4288 13.7625C27.2819 14.3768 26.276 15.2238 25.4754 16.2493C24.6748 17.2748 24.0973 18.4562 23.7797 19.7178C23.7474 19.8363 23.7415 19.9605 23.7625 20.0815C23.7834 20.2026 23.8307 20.3175 23.9009 20.4183C23.9711 20.5191 24.0625 20.6032 24.1688 20.6648C24.2751 20.7264 24.3936 20.7639 24.5159 20.7747H24.5337C24.7565 20.79 24.9774 20.7255 25.1569 20.5928C25.3364 20.46 25.4628 20.2678 25.5134 20.0503ZM23.0078 27.0453C22.6401 27.19 22.2896 27.3752 21.9628 27.5975C21.8498 26.2703 21.258 25.0295 20.2977 24.1064C19.3375 23.1833 18.0744 22.6409 16.7438 22.5803V22.5625C16.6652 22.1715 16.6254 21.7738 16.625 21.375C16.625 20.7753 16.6547 20.1756 16.7081 19.5937C17.1772 14.5469 19.6116 10.2422 22.8713 7.88499C24.4425 6.69601 26.341 6.01827 28.31 5.94343C28.3753 5.93749 28.4347 5.93749 28.5 5.93749H29.0938C30.4858 5.9262 31.8265 6.46283 32.8263 7.43152C33.8261 8.40022 34.4048 9.72326 34.4375 11.115C34.4661 12.1169 34.216 13.1071 33.7148 13.9751C33.2137 14.8432 32.4813 15.555 31.5994 16.0312V16.055C30.283 16.2062 29.0655 16.8278 28.1709 17.8052C27.2764 18.7827 26.7649 20.0504 26.7306 21.375H26.7188C26.7227 21.9713 26.665 22.5664 26.5466 23.1509C26.3257 24.0425 25.8867 24.8652 25.269 25.545C24.6513 26.2248 23.8742 26.7403 23.0078 27.0453Z" fill="#B0513E"/>
<path d="M21.9628 27.5975C21.8498 26.2703 21.258 25.0294 20.2978 24.1062C19.3375 23.183 18.0744 22.6405 16.7437 22.5797C16.7022 22.5797 16.6665 22.5738 16.625 22.5738V22.5625C16.0288 22.5663 15.4339 22.5084 14.8497 22.3897C13.7722 22.1486 12.8016 21.5654 12.0828 20.7272C11.6005 20.1722 11.2187 19.5372 10.9547 18.851C10.6417 18.06 10.1463 17.3541 9.50897 16.7907C8.87161 16.2273 8.11023 15.8224 7.28679 15.6088C6.46336 15.3953 5.60114 15.3792 4.77031 15.5619C3.93949 15.7446 3.16353 16.1208 2.5056 16.66C1.8378 17.2171 1.31861 17.9312 0.994507 18.7382C1.0996 18.6355 1.20469 18.5327 1.3181 18.4413C1.9534 17.9198 2.69936 17.5503 3.49913 17.3608C4.2989 17.1713 5.13137 17.1669 5.93309 17.348C6.73482 17.529 7.48464 17.8906 8.12541 18.4054C8.76618 18.9201 9.28099 19.5743 9.6306 20.3181C9.79484 20.4047 9.93099 20.5363 10.0231 20.6975C10.4954 21.5643 11.1349 22.3288 11.9046 22.9469C12.6742 23.5651 13.5588 24.0245 14.5071 24.2986C14.7974 24.3271 15.1062 24.3438 15.4381 24.3438V24.355C15.4796 24.355 15.5153 24.361 15.5568 24.361C16.7859 24.4228 17.9594 24.8925 18.8917 25.6958C19.824 26.4992 20.4619 27.5904 20.7046 28.7969C21.0563 28.3316 21.4812 27.9265 21.9628 27.5975Z" fill="#D9644C"/>
<path d="M21.9688 33.4163V33.3094C21.9582 32.4181 22.1691 31.5381 22.5826 30.7484C22.9961 29.9587 23.5992 29.284 24.3378 28.785L24.3438 28.7809C24.353 28.6145 24.4047 28.4533 24.494 28.3127C24.5833 28.1721 24.7072 28.0566 24.8538 27.9775C25.7527 27.4891 26.5417 26.8211 27.1719 26.0152C27.8021 25.2092 28.26 24.2824 28.5172 23.2922C28.5544 23.146 28.6256 23.0105 28.7251 22.897C28.8246 22.7835 28.9495 22.6951 29.0896 22.6391C29.0896 22.6118 29.0932 22.5886 29.0932 22.5607H29.105C29.1393 21.2361 29.6508 19.9685 30.5454 18.991C31.4399 18.0135 32.6574 17.392 33.9738 17.2407C34.1216 17.2239 34.2703 17.216 34.4191 17.217C34.7137 17.2193 35.0074 17.2501 35.2961 17.309C34.4038 16.5017 33.2479 16.0474 32.0447 16.0313C31.8959 16.0303 31.7472 16.0382 31.5994 16.055C30.283 16.2063 29.0655 16.8278 28.1709 17.8053C27.2764 18.7828 26.7649 20.0504 26.7306 21.375H26.7188C26.7227 21.9713 26.665 22.5665 26.5466 23.1509C26.3258 24.0426 25.8868 24.8654 25.2691 25.5453C24.6514 26.2253 23.8743 26.7409 23.0078 27.0459C22.6401 27.1907 22.2896 27.3759 21.9628 27.5981C21.2243 28.0971 20.6212 28.7716 20.2077 29.5612C19.7942 30.3508 19.5833 31.2307 19.5938 32.1219V32.2288C19.6215 33.4203 20.0507 34.5675 20.8118 35.4847C21.573 36.4019 22.6214 37.0352 23.7874 37.2822C23.2331 36.7989 22.7852 36.2057 22.4721 35.5402C22.1591 34.8747 21.9877 34.1515 21.9688 33.4163Z" fill="#D9644C"/>
<path d="M35.2895 17.309C35.0031 17.2513 34.7118 17.2211 34.4197 17.2188C34.2709 17.2178 34.1222 17.2257 33.9744 17.2425C33.9542 17.2425 33.9346 17.2491 33.915 17.2508C34.6351 18.2879 35.0243 19.5187 35.0312 20.7813C35.0312 29.314 29.3906 36.2188 23.1562 36.2188H22.8594C23.1185 36.6115 23.4285 36.9681 23.7815 37.2792C24.1612 37.3626 24.5487 37.4052 24.9375 37.4063H25.5312C31.7656 37.4063 37.4062 30.501 37.4062 21.9688C37.4029 21.0866 37.2124 20.2151 36.8476 19.4119C36.4827 18.6087 35.9517 17.892 35.2895 17.309Z" fill="#B0513E"/>
<path d="M23.94 11.4475C25.5112 10.2585 27.4097 9.58077 29.3787 9.50593C29.444 9.49999 29.5034 9.49999 29.5687 9.49999H30.1625C30.9542 9.49527 31.7369 9.66747 32.4535 10.004C33.1701 10.3405 33.8025 10.8329 34.3045 11.4451C34.308 11.3347 34.3217 11.2272 34.3187 11.115C34.286 9.72326 33.7073 8.40022 32.7075 7.43152C31.7077 6.46283 30.367 5.9262 28.975 5.93749H28.3812C28.3159 5.93749 28.2565 5.93749 28.1912 5.94343C26.2222 6.01827 24.3237 6.69601 22.7525 7.88499C19.4928 10.2422 17.0584 14.5469 16.5894 19.5937C16.5359 20.1762 16.5062 20.7759 16.5062 21.375C16.5066 21.7738 16.5464 22.1715 16.625 22.5625V22.5803C17.0294 22.6094 17.4297 22.6803 17.8196 22.7917C18.37 17.9039 20.7593 13.7477 23.94 11.4475Z" fill="#C55B45"/>
<path d="M30.6089 22.5732C30.4866 22.4021 30.3283 22.2598 30.1451 22.1564C29.9619 22.053 29.7582 21.991 29.5485 21.9747C29.1858 21.9491 28.8257 22.0523 28.5317 22.2662C28.2376 22.4801 28.0285 22.7909 27.9412 23.1438C27.7075 24.0555 27.2879 24.9091 26.7086 25.6509C26.1294 26.3927 25.4031 27.0067 24.5752 27.4544C24.2524 27.6274 24.0012 27.9089 23.8659 28.2492C23.7306 28.5895 23.72 28.9667 23.836 29.3141C23.9325 29.5965 24.1151 29.8416 24.3579 30.015C24.6008 30.1885 24.8919 30.2816 25.1903 30.2813C25.4311 30.2809 25.6681 30.2211 25.8803 30.1073C27.101 29.4537 28.1718 28.5523 29.0241 27.461C29.8764 26.3696 30.4914 25.1124 30.8298 23.7696C30.8818 23.5661 30.889 23.3537 30.8509 23.1471C30.8128 22.9406 30.7302 22.7447 30.6089 22.5732ZM30.2526 23.6242C29.9329 24.886 29.3541 26.0675 28.553 27.0934C27.7519 28.1194 26.7461 28.9675 25.5994 29.5836C25.4918 29.643 25.3725 29.678 25.2499 29.6864C25.1273 29.6948 25.0044 29.6762 24.8897 29.632C24.775 29.5878 24.6714 29.5191 24.5861 29.4306C24.5008 29.3422 24.4359 29.2361 24.3959 29.1199L24.39 29.1033C24.322 28.8905 24.3315 28.6605 24.4168 28.454C24.5021 28.2476 24.6577 28.078 24.8561 27.9752C25.7553 27.4874 26.5444 26.8196 27.174 26.0132C27.8036 25.2069 28.2602 24.2794 28.5153 23.2887C28.5669 23.0719 28.6934 22.8802 28.8726 22.7477C29.0517 22.6151 29.272 22.5502 29.4944 22.5643H29.5122C29.6351 22.5749 29.7542 22.6123 29.8611 22.674C29.9679 22.7356 30.06 22.8199 30.1307 22.921C30.2014 23.022 30.2491 23.1374 30.2704 23.2589C30.2916 23.3804 30.286 23.5051 30.2538 23.6242H30.2526Z" fill="#B0513E"/>
<path d="M20.7047 28.7969C20.5174 27.7578 20.0188 26.8001 19.2749 26.0508C18.214 26.8877 17.5072 28.0935 17.2953 29.428C17.2604 29.6897 17.162 29.9389 17.0088 30.1538C16.8555 30.3687 16.652 30.543 16.416 30.6613L16.362 30.685C16.1138 30.7875 15.8441 30.8269 15.577 30.7996C7.8185 30.1352 1.78125 24.8283 1.78125 19V18.4063C1.78125 18.3 1.79253 18.1973 1.79847 18.0922C1.63205 18.1998 1.4717 18.3166 1.31813 18.4419C1.20472 18.5357 1.09963 18.6384 0.995128 18.7388C0.72941 19.3869 0.593058 20.0808 0.593753 20.7813V21.375C0.593753 27.6094 7.49906 33.25 16.0313 33.25C16.6713 33.2498 17.3073 33.1497 17.9164 32.9531C18.5136 32.7607 19.0789 32.4805 19.5938 32.1219C19.5871 31.4845 19.6947 30.851 19.9114 30.2516C20.1036 29.7198 20.378 29.2215 20.7248 28.7749C20.7183 28.7832 20.7106 28.7898 20.7047 28.7969Z" fill="#B0513E"/>
<path d="M14.8561 23.7851C13.9444 23.5514 13.0909 23.1317 12.3491 22.5525C11.6073 21.9733 10.9932 21.2469 10.5455 20.4191C10.3726 20.0962 10.0911 19.8449 9.75079 19.7096C9.41045 19.5743 9.03323 19.5638 8.68587 19.6799C8.48846 19.7479 8.30827 19.8582 8.15785 20.003C8.00743 20.1478 7.89041 20.3237 7.81495 20.5183C7.73948 20.713 7.70739 20.9218 7.72091 21.1302C7.73442 21.3385 7.79323 21.5414 7.89321 21.7247C8.54698 22.9453 9.44837 24.016 10.5397 24.8681C11.631 25.7203 12.8882 26.3353 14.2309 26.6737C14.3487 26.7034 14.4698 26.7183 14.5913 26.7182C14.9535 26.7194 15.3028 26.5833 15.5688 26.3375C15.8348 26.0916 15.9979 25.7541 16.0252 25.3929C16.051 25.0301 15.9478 24.6699 15.7339 24.3758C15.52 24.0816 15.2092 23.8724 14.8561 23.7851ZM15.4327 25.3573C15.4218 25.4798 15.3843 25.5984 15.3228 25.7048C15.2613 25.8113 15.1773 25.903 15.0766 25.9735C14.9759 26.0441 14.861 26.0917 14.7399 26.1132C14.6189 26.1346 14.4946 26.1294 14.3758 26.0977C13.114 25.778 11.9325 25.1992 10.9065 24.3981C9.88051 23.597 9.03247 22.5911 8.41631 21.4445C8.35697 21.3369 8.32189 21.2176 8.31353 21.095C8.30517 20.9724 8.32373 20.8494 8.36792 20.7347C8.4121 20.6201 8.48083 20.5165 8.5693 20.4312C8.65777 20.3459 8.76382 20.2809 8.88003 20.241L8.89665 20.235C9.10946 20.1671 9.33943 20.1766 9.54589 20.2619C9.75235 20.3472 9.92198 20.5028 10.0248 20.7011C10.5125 21.6004 11.1804 22.3895 11.9867 23.0191C12.7931 23.6487 13.7205 24.1053 14.7112 24.3604C14.9281 24.4119 15.1197 24.5385 15.2523 24.7176C15.3848 24.8968 15.4498 25.1171 15.4356 25.3395L15.4327 25.3573Z" fill="#B0513E"/>
<path d="M30.8571 13.6563C30.4131 13.7708 29.9796 13.9223 29.561 14.1093C29.5821 14.1476 29.6005 14.1872 29.6162 14.2281L29.6221 14.2399C29.6896 14.4524 29.6801 14.6819 29.5955 14.8881C29.5108 15.0944 29.3563 15.2642 29.159 15.3681C28.2601 15.8565 27.4712 16.5243 26.841 17.3301C26.2108 18.136 25.7529 19.0627 25.4955 20.0527C25.4449 20.2702 25.3185 20.4624 25.139 20.5952C24.9595 20.7279 24.7386 20.7924 24.5159 20.7771H24.498C24.4579 20.7724 24.4182 20.7644 24.3793 20.7534C24.1294 21.6399 23.9485 22.5446 23.8384 23.4591C23.8254 23.5713 23.7791 23.677 23.7054 23.7626C23.6318 23.8481 23.5341 23.9097 23.4252 23.9392C23.3162 23.9687 23.2008 23.9649 23.094 23.9282C22.9872 23.8915 22.8939 23.8237 22.826 23.7334C22.2702 22.9779 21.5576 22.3517 20.737 21.8975C19.9163 21.4434 19.0072 21.1722 18.0719 21.1025C17.9603 21.6446 17.87 22.1974 17.8053 22.7602C18.9182 23.0258 19.9183 23.6373 20.6618 24.5068C21.4054 25.3764 21.8542 26.4593 21.9437 27.5999C22.2705 27.3777 22.621 27.1925 22.9887 27.0477C23.8552 26.7427 24.6323 26.227 25.25 25.5471C25.8677 24.8672 26.3067 24.0444 26.5275 23.1527C26.6464 22.5677 26.7045 21.972 26.7009 21.375H26.7127C26.747 20.0504 27.2585 18.7828 28.1531 17.8053C29.0476 16.8278 30.2651 16.2063 31.5815 16.055V16.0313C32.3748 15.601 33.0478 14.979 33.5391 14.2219C34.0304 13.4648 34.3243 12.5967 34.3941 11.6969C33.7956 12.4878 32.7102 13.1931 30.8571 13.6563Z" fill="#9C4837"/>
<path d="M30.1951 14.0297C30.1276 13.8334 30.0183 13.6541 29.8748 13.5042C29.7313 13.3542 29.557 13.2371 29.3639 13.1611C29.1683 13.0854 28.9586 13.053 28.7493 13.0661C28.54 13.0792 28.336 13.1375 28.1514 13.2371C26.9308 13.8908 25.8602 14.7922 25.008 15.8835C24.1558 16.9749 23.5409 18.2321 23.2025 19.5747C23.1496 19.7782 23.142 19.9908 23.1802 20.1975C23.2184 20.4042 23.3015 20.6 23.4236 20.7712C23.5457 20.9423 23.7039 21.0845 23.887 21.1878C24.0701 21.2911 24.2736 21.353 24.4832 21.3691C24.5266 21.3726 24.5687 21.375 24.6103 21.375C24.952 21.3692 25.2822 21.251 25.5499 21.0386C25.8176 20.8261 26.0078 20.5314 26.0911 20.2C26.3248 19.2883 26.7444 18.4347 27.3237 17.6929C27.9029 16.9511 28.6292 16.3371 29.4571 15.8893C29.7797 15.7162 30.0307 15.4346 30.1657 15.0943C30.3008 14.754 30.3112 14.3769 30.1951 14.0297ZM29.1738 15.3668C28.2746 15.8546 27.4855 16.5224 26.8559 17.3288C26.2263 18.1351 25.7697 19.0626 25.5146 20.0533C25.463 20.2701 25.3365 20.4618 25.1573 20.5943C24.9782 20.7269 24.7579 20.7918 24.5355 20.7777H24.5177C24.3952 20.7668 24.2766 20.7294 24.1701 20.6678C24.0637 20.6063 23.972 20.5223 23.9014 20.4216C23.8309 20.3209 23.7832 20.206 23.7618 20.0849C23.7403 19.9639 23.7456 19.8396 23.7773 19.7208C24.097 18.459 24.6758 17.2775 25.4769 16.2515C26.278 15.2255 27.2838 14.3775 28.4305 13.7613C28.5381 13.702 28.6574 13.6669 28.78 13.6586C28.9026 13.6502 29.0255 13.6688 29.1402 13.7129C29.2549 13.7571 29.3585 13.8259 29.4438 13.9143C29.5291 14.0028 29.594 14.1088 29.634 14.2251L29.6399 14.2417C29.7071 14.4541 29.6972 14.6834 29.6119 14.8892C29.5267 15.095 29.3715 15.2641 29.1738 15.3668Z" fill="#9C4837"/>
<path d="M15.2266 10.0071C14.4363 10.4692 13.5598 10.7647 12.651 10.8754C11.7422 10.9861 10.8204 10.9096 9.94227 10.6507C9.59859 10.5438 9.22807 10.5627 8.8971 10.7042C8.56613 10.8456 8.29634 11.1003 8.13608 11.4226C8.04621 11.6048 7.99716 11.8045 7.99234 12.0076C7.98752 12.2107 8.02705 12.4125 8.10818 12.5988C8.19165 12.7885 8.31548 12.9576 8.47105 13.0945C8.62661 13.2314 8.81016 13.3328 9.0089 13.3914C10.303 13.7784 11.6632 13.8937 13.004 13.7303C14.3448 13.5668 15.6374 13.128 16.8007 12.4414C16.9795 12.3378 17.1333 12.196 17.251 12.0261C17.3687 11.8561 17.4473 11.6623 17.4814 11.4584C17.5154 11.2545 17.504 11.0456 17.4479 10.8466C17.3918 10.6477 17.2924 10.4636 17.1569 10.3075C16.9205 10.0406 16.5983 9.86451 16.2459 9.80967C15.8935 9.75483 15.5331 9.82464 15.2266 10.0071ZM16.4949 11.9344C15.4016 12.5774 14.1877 12.9883 12.9286 13.1415C11.6696 13.2948 10.3925 13.187 9.17693 12.825C9.06224 12.7931 8.95598 12.7364 8.86571 12.6588C8.77544 12.5812 8.70336 12.4846 8.65462 12.376C8.60587 12.2674 8.58165 12.1494 8.58367 12.0304C8.58569 11.9114 8.6139 11.7943 8.6663 11.6874L8.67402 11.6719C8.7752 11.4802 8.94046 11.3301 9.14098 11.2478C9.34149 11.1654 9.56455 11.156 9.77127 11.2213C10.7278 11.5023 11.7316 11.585 12.7212 11.4644C13.7108 11.3438 14.6654 11.0225 15.5265 10.5201C15.7118 10.4072 15.9308 10.3628 16.1455 10.3946C16.3601 10.4264 16.5568 10.5323 16.7015 10.694L16.7128 10.7071C16.7898 10.7979 16.8458 10.9046 16.8768 11.0195C16.9079 11.1344 16.9132 11.2548 16.8924 11.372C16.8716 11.4892 16.8251 11.6003 16.7564 11.6976C16.6877 11.7948 16.5984 11.8756 16.4949 11.9344Z" fill="#9C4837"/>
<path d="M34.0205 20.3866C34.4013 20.0058 34.2802 19.2675 33.7502 18.7374C33.2201 18.2074 32.4817 18.0863 32.101 18.467C31.7203 18.8478 31.8413 19.5861 32.3714 20.1162C32.9014 20.6463 33.6398 20.7673 34.0205 20.3866Z" fill="#F6FAFD"/>
<path d="M4.92263 20.9703C5.30337 20.5895 5.18232 19.8512 4.65226 19.3211C4.12219 18.791 3.38384 18.67 3.00311 19.0507C2.62237 19.4315 2.74342 20.1698 3.27349 20.6999C3.80355 21.2299 4.5419 21.351 4.92263 20.9703Z" fill="#F6FAFD"/>
<path d="M33.5401 22.8857C33.7314 22.6944 33.6707 22.3235 33.4045 22.0573C33.1383 21.7911 32.7674 21.7304 32.5761 21.9217C32.3848 22.113 32.4455 22.4839 32.7117 22.75C32.9779 23.0162 33.3488 23.077 33.5401 22.8857Z" fill="#F6FAFD"/>
<path d="M5.62967 22.8761C5.82097 22.6848 5.76025 22.314 5.49406 22.0478C5.22787 21.7816 4.857 21.7209 4.66571 21.9122C4.47441 22.1035 4.53513 22.4743 4.80132 22.7405C5.06751 23.0067 5.43837 23.0674 5.62967 22.8761Z" fill="#F6FAFD"/>
<path d="M31.1692 8.63267C31.3605 8.44137 31.2998 8.0705 31.0336 7.80431C30.7674 7.53812 30.3966 7.47741 30.2053 7.6687C30.014 7.86 30.0747 8.23087 30.3409 8.49706C30.6071 8.76325 30.9779 8.82396 31.1692 8.63267Z" fill="#F6FAFD"/>
<path d="M32.0458 15.4375C30.5142 15.474 29.0536 16.0904 27.9589 17.1622C26.8642 18.234 26.217 19.6813 26.1481 21.2117C26.1326 21.2648 26.1248 21.3198 26.125 21.375C26.1296 21.9299 26.0761 22.4837 25.9652 23.0274C25.7628 23.8223 25.367 24.5548 24.813 25.1597C24.2589 25.7645 23.564 26.223 22.7899 26.4943C21.7145 26.9187 20.785 27.6454 20.1137 28.5866C19.4424 29.5278 19.058 30.6433 19.0071 31.7983C18.1135 32.3538 17.0834 32.6507 16.0312 32.6563C7.9853 32.6563 1.18746 27.4906 1.18746 21.375V20.7813C1.18066 19.5449 1.65865 18.3552 2.51889 17.4672C3.37913 16.5792 4.55311 16.0637 5.78902 16.0313C6.77659 15.999 7.74995 16.2732 8.57545 16.8162C9.40095 17.3592 10.0381 18.1445 10.3995 19.0641C10.7418 20.0218 11.316 20.8797 12.0708 21.5613C12.8256 22.2428 13.7375 22.7267 14.725 22.9698C15.3066 23.0911 15.899 23.1536 16.4931 23.1563C16.5265 23.1641 16.5605 23.1687 16.5947 23.1699C17.368 23.2031 18.124 23.41 18.8064 23.7753C19.4888 24.1406 20.0802 24.6549 20.5366 25.2801L21.5056 24.5931C21.0061 23.9061 20.3732 23.3269 19.6446 22.8901C18.9161 22.4534 18.107 22.1681 17.2656 22.0513C17.2361 21.827 17.2204 21.6012 17.2187 21.375C17.2187 13.3285 22.3843 6.53126 28.5 6.53126H29.0937C30.33 6.52447 31.5198 7.00245 32.4078 7.86269C33.2958 8.72293 33.8113 9.89691 33.8437 11.1328C33.8758 12.1225 33.5997 13.0976 33.0534 13.9235L34.0438 14.5766C34.6373 13.6809 34.977 12.6412 35.027 11.568C35.077 10.4947 34.8353 9.42795 34.3276 8.48103C33.8199 7.53411 33.0652 6.7424 32.1437 6.19001C31.2221 5.63762 30.1681 5.34518 29.0937 5.34376H28.7268C28.4322 4.55354 27.9699 3.83649 27.3718 3.24189L26.9627 2.83636C22.2994 -1.78124 13.2922 -0.667362 7.29536 5.26836L8.13077 6.11564C13.6746 0.625232 21.9182 -0.488644 26.1291 3.68126L26.5388 4.08679C26.9226 4.46844 27.2372 4.91384 27.4686 5.40314C25.827 5.60097 24.2574 6.19161 22.8926 7.12501C21.7843 6.30135 20.4257 5.88538 19.0463 5.94737C17.6668 6.00935 16.351 6.54548 15.3211 7.46523C15.2731 7.49174 15.2289 7.5247 15.1899 7.5632C14.8114 7.9454 14.3934 8.28634 13.943 8.58029C13.2551 8.98434 12.4787 9.21368 11.6817 9.24825C10.8847 9.28283 10.0914 9.12157 9.37111 8.77861C8.55956 8.42741 7.67887 8.265 6.79543 8.30361C6.95743 7.79296 7.19348 7.30884 7.49605 6.86673L6.51874 6.19223C6.04087 6.8917 5.69997 7.67544 5.51411 8.50192C4.47197 8.77985 3.52682 9.34016 2.78286 10.1211C2.17395 10.7508 1.71927 11.513 1.45451 12.348C1.18975 13.1829 1.12212 14.0679 1.25693 14.9334L2.42958 14.7494C2.32399 14.0638 2.37861 13.3631 2.58917 12.7021C2.79972 12.0412 3.1605 11.438 3.64321 10.9399C4.30567 10.2465 5.16427 9.77226 6.1039 9.58071C7.04353 9.38915 8.01926 9.48945 8.90027 9.86814C9.79874 10.2883 10.7865 10.4818 11.7771 10.4317C12.7677 10.3816 13.731 10.0895 14.5825 9.58076C15.0671 9.2664 15.5189 8.90397 15.9309 8.49895C15.9601 8.48173 15.9878 8.46186 16.0134 8.43958C16.7939 7.70991 17.7935 7.25842 18.857 7.15524C19.9205 7.05206 20.9883 7.30296 21.8945 7.86898C18.8705 10.3598 16.6903 14.4673 16.1589 19.1585C14.9334 19.6353 13.6513 19.951 12.3446 20.0979C11.9945 19.6547 11.7116 19.1623 11.5051 18.6366C11.0524 17.4898 10.2573 16.5103 9.22802 15.8316C8.19871 15.1529 6.98521 14.808 5.7528 14.8438C4.20791 14.8846 2.7405 15.529 1.66511 16.6389C0.589729 17.7488 -0.00803595 19.2359 -4.29322e-05 20.7813V21.375C-4.29322e-05 28.1337 7.34108 33.8438 16.0312 33.8438C17.0965 33.8396 18.1463 33.5876 19.0973 33.1075C19.3355 34.4817 20.0528 35.7271 21.1219 36.6227C22.191 37.5184 23.5428 38.0063 24.9375 38H25.5312C32.2899 38 38 30.6589 38 21.9688C38 18.4282 35.2735 15.4375 32.0458 15.4375ZM16.0591 21.9426C15.6941 21.9249 15.3309 21.88 14.9726 21.8084C14.4252 21.6864 13.907 21.4585 13.4472 21.1375C14.3335 20.9815 15.2054 20.7532 16.0544 20.4547C16.0401 20.7617 16.0312 21.0674 16.0312 21.375C16.0312 21.5638 16.0431 21.7532 16.0591 21.9426ZM25.5312 36.8125H24.9375C23.7011 36.8193 22.5114 36.3413 21.6234 35.4811C20.7354 34.6208 20.2199 33.4469 20.1875 32.2109C20.1569 31.2237 20.4318 30.2511 20.9746 29.426C21.5174 28.6008 22.3017 27.9633 23.2203 27.6005C24.1781 27.2584 25.0361 26.6843 25.7177 25.9294C26.3993 25.1746 26.8831 24.2626 27.126 23.275C27.2465 22.694 27.3089 22.1025 27.3125 21.5092C27.3202 21.4748 27.325 21.4399 27.3267 21.4047C27.3497 20.1546 27.8525 18.9613 28.7309 18.0716C29.6093 17.1819 30.7962 16.664 32.0458 16.625C34.5853 16.625 36.8125 19.1223 36.8125 21.9688C36.8125 30.0153 31.6468 36.8125 25.5312 36.8125Z" fill="black"/>
<path d="M29.5485 21.9747C29.1859 21.9499 28.8263 22.0534 28.5324 22.2672C28.2386 22.4809 28.0293 22.7912 27.9412 23.1438C27.7075 24.0555 27.2879 24.909 26.7086 25.6508C26.1294 26.3926 25.4031 27.0067 24.5752 27.4544C24.2524 27.6273 24.0012 27.9088 23.8659 28.2492C23.7306 28.5895 23.72 28.9667 23.836 29.314C23.9325 29.5964 24.1151 29.8415 24.3579 30.015C24.6008 30.1884 24.8919 30.2815 25.1903 30.2812C25.4311 30.2808 25.6681 30.2211 25.8803 30.1073C27.101 29.4536 28.1718 28.5523 29.0241 27.4609C29.8764 26.3696 30.4914 25.1123 30.8298 23.7696C30.8827 23.5661 30.8903 23.3534 30.8521 23.1467C30.8138 22.9399 30.7307 22.7441 30.6085 22.573C30.4863 22.4018 30.328 22.2596 30.1449 22.1564C29.9617 22.0531 29.7581 21.9913 29.5485 21.9753V21.9747ZM29.6779 23.4792C29.3801 24.6616 28.8387 25.7688 28.0883 26.7299C27.3379 27.6909 26.3952 28.4847 25.3204 29.0605C25.2873 29.0804 25.2499 29.0923 25.2114 29.0952C25.1729 29.0981 25.1342 29.092 25.0985 29.0774C25.0627 29.0627 25.0309 29.04 25.0055 29.0108C24.9801 28.9817 24.9619 28.9471 24.9522 28.9097C24.9314 28.8304 24.9386 28.7463 24.9726 28.6717C25.0065 28.597 25.0652 28.5364 25.1387 28.5C26.1113 27.9744 26.9647 27.2534 27.6453 26.3822C28.3259 25.511 28.819 24.5085 29.0936 23.4377C29.111 23.36 29.1537 23.2902 29.2149 23.2393C29.2761 23.1884 29.3525 23.1592 29.4321 23.1562C29.4418 23.1556 29.4515 23.1556 29.4612 23.1562C29.4965 23.1591 29.5308 23.1696 29.5615 23.1872C29.5923 23.2047 29.6189 23.2288 29.6393 23.2578C29.6621 23.2894 29.6773 23.3257 29.684 23.3641C29.6907 23.4024 29.6886 23.4418 29.6779 23.4792Z" fill="black"/>
<path d="M29.3626 13.1611C29.1671 13.0856 28.9575 13.0534 28.7484 13.0665C28.5392 13.0796 28.3354 13.1378 28.1508 13.2371C26.93 13.8907 25.8593 14.792 25.007 15.8834C24.1547 16.9747 23.5396 18.232 23.2013 19.5747C23.1484 19.7782 23.1407 19.9909 23.179 20.1976C23.2172 20.4044 23.3004 20.6002 23.4226 20.7714C23.5448 20.9425 23.703 21.0847 23.8862 21.188C24.0693 21.2912 24.2729 21.3531 24.4826 21.3691C24.5253 21.3732 24.5675 21.375 24.6097 21.375C24.9512 21.3691 25.2814 21.2508 25.5489 21.0384C25.8165 20.826 26.0066 20.5313 26.0899 20.2C26.3235 19.2883 26.7432 18.4347 27.3224 17.6929C27.9017 16.9511 28.628 16.3371 29.4558 15.8893C29.7786 15.7164 30.0299 15.4349 30.1652 15.0946C30.3004 14.7543 30.311 14.3771 30.1951 14.0297C30.1276 13.8332 30.0182 13.6538 29.8744 13.5038C29.7307 13.3538 29.5561 13.2368 29.3626 13.1611ZM28.8924 14.8437C27.9198 15.3693 27.0664 16.0904 26.3858 16.9615C25.7052 17.8327 25.212 18.8352 24.9374 19.9061C24.919 19.9888 24.8718 20.0623 24.8041 20.1134C24.7364 20.1644 24.6527 20.1896 24.5681 20.1845C24.5328 20.1817 24.4985 20.1711 24.4677 20.1536C24.4369 20.136 24.4104 20.1119 24.39 20.083C24.368 20.0516 24.3532 20.0157 24.3469 19.9779C24.3405 19.9401 24.3426 19.9014 24.3531 19.8645C24.651 18.6821 25.1924 17.575 25.9427 16.6139C26.6931 15.6528 27.6359 14.859 28.7107 14.2832C28.7436 14.2642 28.7803 14.2528 28.8182 14.2497C28.8561 14.2466 28.8942 14.252 28.9298 14.2654C28.9656 14.2807 28.9976 14.3037 29.0234 14.3329C29.0492 14.362 29.0681 14.3966 29.0788 14.4341C29.0996 14.5134 29.0924 14.5974 29.0585 14.6721C29.0245 14.7467 28.9658 14.8073 28.8924 14.8437Z" fill="black"/>
<path d="M10.5455 20.4191C10.3724 20.0962 10.0908 19.8449 9.75041 19.7097C9.41 19.5744 9.03273 19.5638 8.68528 19.6798C8.48919 19.7474 8.31009 19.8568 8.16033 20.0003C8.01057 20.1438 7.89371 20.3181 7.81781 20.5111C7.74176 20.7067 7.70907 20.9164 7.72199 21.1258C7.7349 21.3353 7.79312 21.5394 7.89262 21.7241C8.54663 22.9446 9.44817 24.0152 10.5396 24.8674C11.631 25.7195 12.8882 26.3345 14.2309 26.673C14.3489 26.7028 14.4702 26.7178 14.5919 26.7176C14.9541 26.7189 15.3034 26.5829 15.5693 26.337C15.8353 26.0911 15.9982 25.7535 16.0252 25.3923C16.051 25.0295 15.9478 24.6693 15.7339 24.3751C15.52 24.081 15.2092 23.8718 14.8561 23.7844C13.9445 23.5508 13.091 23.1313 12.3492 22.5522C11.6074 21.973 10.9933 21.2468 10.5455 20.4191ZM14.7392 25.4849C14.7078 25.507 14.6719 25.5217 14.6341 25.5281C14.5963 25.5345 14.5575 25.5323 14.5207 25.5218C13.3383 25.224 12.2312 24.6827 11.2701 23.9324C10.3091 23.1822 9.51521 22.2395 8.9394 21.1648C8.91977 21.1316 8.9081 21.0943 8.90529 21.0558C8.90249 21.0173 8.90863 20.9787 8.92323 20.943C8.93784 20.9073 8.96052 20.8754 8.98949 20.85C9.01846 20.8245 9.05293 20.806 9.09022 20.7961C9.11944 20.7861 9.15016 20.781 9.18106 20.7813C9.24724 20.7837 9.3116 20.8036 9.3676 20.8389C9.4236 20.8743 9.46925 20.9238 9.4999 20.9825C10.0256 21.9552 10.7467 22.8086 11.618 23.4892C12.4893 24.1698 13.4919 24.6629 14.5628 24.9375C14.6453 24.9564 14.7184 25.0038 14.7694 25.0714C14.8203 25.1389 14.8458 25.2223 14.8413 25.3068C14.838 25.3421 14.8272 25.3763 14.8096 25.407C14.792 25.4377 14.768 25.4643 14.7392 25.4849Z" fill="black"/>
<path d="M9.00592 13.3938C10.3001 13.7808 11.6602 13.8961 13.001 13.7327C14.3419 13.5692 15.6344 13.1304 16.7977 12.4438C16.9766 12.3402 17.1303 12.1984 17.248 12.0284C17.3657 11.8585 17.4444 11.6647 17.4784 11.4608C17.5124 11.2569 17.501 11.048 17.4449 10.849C17.3888 10.6501 17.2895 10.466 17.1539 10.3099C16.9178 10.043 16.596 9.86672 16.2439 9.81145C15.8918 9.75618 15.5314 9.82536 15.2249 10.0071C14.4345 10.4692 13.558 10.7647 12.6492 10.8754C11.7404 10.9861 10.8186 10.9096 9.94048 10.6507C9.59659 10.5478 9.2275 10.5686 8.8974 10.7097C8.5673 10.8507 8.29707 11.1029 8.1337 11.4226C8.0439 11.6047 7.99483 11.8042 7.98991 12.0073C7.98499 12.2103 8.02433 12.4119 8.1052 12.5982C8.18832 12.7884 8.312 12.9582 8.46758 13.0956C8.62316 13.233 8.80689 13.3348 9.00592 13.3938ZM9.20661 11.9332C9.23555 11.8828 9.27776 11.8414 9.32864 11.8133C9.37952 11.7852 9.43712 11.7717 9.49517 11.7741C9.53173 11.7743 9.56809 11.7795 9.60323 11.7895C10.6375 12.0948 11.7234 12.1851 12.7939 12.0547C13.8643 11.9243 14.8968 11.576 15.8275 11.0313C15.895 10.989 15.9752 10.9718 16.0541 10.9826C16.133 10.9935 16.2056 11.0317 16.2592 11.0907C16.2798 11.1138 16.2949 11.1413 16.3034 11.1712C16.312 11.201 16.3137 11.2323 16.3084 11.2629C16.3018 11.2966 16.2877 11.3285 16.2671 11.3561C16.2466 11.3838 16.2201 11.4065 16.1897 11.4226C15.1679 12.0256 14.0325 12.411 12.8548 12.5546C11.6771 12.6983 10.4823 12.5971 9.34554 12.2574C9.31178 12.2483 9.28044 12.2319 9.25376 12.2093C9.22707 12.1868 9.2057 12.1586 9.19117 12.1268C9.17884 12.0957 9.17382 12.0621 9.1765 12.0288C9.17917 11.9954 9.18947 11.9631 9.20661 11.9344V11.9332Z" fill="black"/>
</g>
<defs>
<clipPath id="clip0_18_146">
<rect width="38" height="38" fill="white"/>
</clipPath>
</defs>
</svg>
