<svg id="Capa_1" enable-background="new 0 0 512 512" height="512" viewBox="0 0 512 512" width="512" xmlns="http://www.w3.org/2000/svg"><g><path d="m506.328 234.723c13.006-28.856 2.871-62.242-22.499-79.373.087-.188.183-.368.268-.557 14.539-32.257.176-70.193-32.081-84.733-32.257-14.539-70.194-.176-84.733 32.081-.085.189-.156.38-.24.57-29.638-7.663-61.365 6.855-74.371 35.71-2.511 5.57-34.14 11.31-34.983 17.069l33.912 356.51 29.942-65.998c7.572-16.69 16.618-32.671 27.031-47.753l6.945-10.058c2.85 1.886 5.88 3.578 9.097 5.028 32.257 14.539 70.193.176 84.733-32.081 1.198-2.657 2.18-5.355 2.992-8.072 22.193-2.081 42.671-15.684 52.486-37.459 10.129-22.472 6.218-47.692-7.986-65.846 3.755-4.446 6.977-9.468 9.487-15.038z" fill="#347131"/><path d="m219.327 138.421c-13.006-28.856-44.733-43.373-74.371-35.71-.083-.189-.154-.381-.24-.57-14.539-32.257-52.476-46.62-84.733-32.081-32.257 14.54-46.62 52.476-32.081 84.733.085.189.181.369.268.557-25.37 17.131-35.505 50.517-22.499 79.373 2.511 5.57 5.732 10.592 9.488 15.038-14.204 18.154-18.115 43.373-7.986 65.846 9.814 21.774 30.292 35.377 52.486 37.459.812 2.718 1.794 5.415 2.992 8.072 14.539 32.257 52.476 46.62 84.733 32.081 3.217-1.45 6.247-3.142 9.096-5.028l6.945 10.058c10.413 15.082 19.459 31.063 27.031 47.753l29.943 65.998 33.912-356.51c-.844-5.759-32.473-11.499-34.984-17.069z" fill="#4aa046"/><g><path d="m191.934 64.066c0 .207.014.411.016.618-30.169 5.193-53.128 31.465-53.128 63.117 0 6.11.873 12.012 2.471 17.609-20.409 10.714-34.338 32.099-34.338 56.748 0 23.884 13.079 44.7 32.457 55.718-.377 2.811-.59 5.674-.59 8.589 0 35.383 28.683 64.066 64.066 64.066 3.528 0 6.986-.297 10.359-.846l2.039 11.154c3.401 18.605 5.112 37.48 5.112 56.394v114.767h35.602l20-165.667-20-346.333c-35.383 0-64.066 28.683-64.066 64.066z" fill="#a0be28"/><path d="m405.045 202.157c0-24.65-13.929-46.034-34.338-56.748 1.597-5.597 2.471-11.499 2.471-17.609 0-31.651-22.959-57.924-53.128-63.117.002-.207.016-.411.016-.618 0-35.382-28.683-64.065-64.066-64.065v512h35.601v-114.768c0-18.914 1.711-37.789 5.112-56.394l2.039-11.155c3.373.549 6.831.846 10.359.846 35.383 0 64.066-28.683 64.066-64.066 0-2.914-.213-5.777-.59-8.589 19.379-11.016 32.458-31.833 32.458-55.717z" fill="#4aa046"/></g><g><path d="m241 78.075v53.468l-21.801-21.801-21.213 21.213 43.014 43.014v42.553l-30.653-30.653-21.213 21.213 51.866 51.866v27.857h15l10-117.472-10-91.258z" fill="#4aa046"/><path d="m301.653 185.869-30.653 30.653v-42.553l43.014-43.014-21.213-21.213-21.801 21.801v-53.468h-15v208.73h15v-27.857l51.866-51.866z" fill="#347131"/></g></g></svg>