<svg width="38" height="38" viewBox="0 0 38 38" fill="none" xmlns="http://www.w3.org/2000/svg">
<path d="M25.5312 4.15625H32.6562V36.2188H25.5312V4.15625Z" fill="#ECAF5B"/>
<path d="M29.0938 6.53125L25.5312 4.15625H32.6562L29.0938 6.53125Z" fill="#F5C27B"/>
<path d="M29.0938 33.8438L32.6562 36.2188H25.5312L29.0938 33.8438Z" fill="#F5C27B"/>
<path d="M25.5312 4.15625H32.6562V36.2188H25.5312V4.15625Z" fill="#B6CCF8"/>
<path d="M29.0938 32.4164L25.5312 34.7914V36.2188L29.0938 33.8438L32.6562 36.2188V34.7914L29.0938 32.4164Z" fill="#A3C0F6"/>
<path d="M32.6562 4.15625L29.0938 6.53125L25.5312 4.15625V5.58363L29.0938 7.95863L32.6562 5.58363V4.15625Z" fill="#A3C0F6"/>
<path d="M5.34375 4.15625H25.5312V36.2188H5.34375V4.15625Z" fill="#C4D6FA"/>
<path d="M8.90625 1.78125H16.0312V4.15625H8.90625V1.78125Z" fill="#4880ED"/>
<path d="M17.8125 30.875H22.5625V33.25H17.8125V30.875Z" fill="white"/>
<path d="M29.0938 6.53125L25.5312 4.15625H32.6562L29.0938 6.53125Z" fill="#C4D6FA"/>
<path d="M29.0938 33.8438L32.6562 36.2188H25.5312L29.0938 33.8438Z" fill="#C4D6FA"/>
<path d="M18.4062 14.25H23.1562V15.4375C23.1562 16.0674 22.906 16.6715 22.4606 17.1169C22.0152 17.5623 21.4111 17.8125 20.7812 17.8125C20.1514 17.8125 19.5473 17.5623 19.1019 17.1169C18.6565 16.6715 18.4062 16.0674 18.4062 15.4375V14.25Z" fill="white"/>
<path d="M7.71875 14.25H12.4688V15.4375C12.4688 16.0674 12.2185 16.6715 11.7731 17.1169C11.3277 17.5623 10.7236 17.8125 10.0938 17.8125C9.46386 17.8125 8.85977 17.5623 8.41437 17.1169C7.96897 16.6715 7.71875 16.0674 7.71875 15.4375V14.25Z" fill="white"/>
<path d="M15.4375 24.3438C14.7414 24.3438 14.0623 24.1296 13.4922 23.7302C12.9221 23.3309 12.4887 22.7659 12.2508 22.1117L10.7474 17.9773C10.4732 17.2234 10.3849 16.4146 10.4897 15.6193C10.5946 14.824 10.8897 14.0657 11.3499 13.4087C11.8101 12.7517 12.4218 12.2153 13.1334 11.8449C13.845 11.4746 14.6353 11.2812 15.4375 11.2813C16.2396 11.2812 17.03 11.4746 17.7415 11.8449C18.4531 12.2153 19.0649 12.7517 19.5251 13.4087C19.9853 14.0657 20.2803 14.824 20.3852 15.6193C20.4901 16.4146 20.4017 17.2234 20.1275 17.9773L18.6241 22.1117C18.3863 22.7659 17.9529 23.3309 17.3828 23.7302C16.8127 24.1296 16.1335 24.3438 15.4375 24.3438Z" fill="white"/>
<path d="M20.3292 15.3072C20.1249 14.2712 19.5972 13.3267 18.8219 12.6097C18.0467 11.8927 17.064 11.4401 16.0152 11.3172C15.5821 11.9025 15.3803 12.627 15.4484 13.3518C15.5165 14.0767 15.8497 14.751 16.3842 15.2453C16.9187 15.7397 17.6169 16.0194 18.3449 16.0308C19.0728 16.0422 19.7794 15.7845 20.3292 15.3072Z" fill="#4B5B61"/>
<path d="M15.4375 24.9375C17.2411 24.9375 18.7031 24.0071 18.7031 22.8594C18.7031 21.7117 17.2411 20.7812 15.4375 20.7812C13.6339 20.7812 12.1719 21.7117 12.1719 22.8594C12.1719 24.0071 13.6339 24.9375 15.4375 24.9375Z" fill="#DEC8A8"/>
<path d="M32.6562 3.5625H16.625V1.78125C16.625 1.62378 16.5624 1.47276 16.4511 1.36141C16.3397 1.25006 16.1887 1.1875 16.0312 1.1875H8.90625C8.74878 1.1875 8.59776 1.25006 8.48641 1.36141C8.37506 1.47276 8.3125 1.62378 8.3125 1.78125V3.5625H5.34375C5.18628 3.5625 5.03526 3.62506 4.92391 3.73641C4.81256 3.84776 4.75 3.99878 4.75 4.15625V36.2188C4.75 36.3762 4.81256 36.5272 4.92391 36.6386C5.03526 36.7499 5.18628 36.8125 5.34375 36.8125H32.6562C32.8137 36.8125 32.9647 36.7499 33.0761 36.6386C33.1874 36.5272 33.25 36.3762 33.25 36.2188V4.15625C33.25 3.99878 33.1874 3.84776 33.0761 3.73641C32.9647 3.62506 32.8137 3.5625 32.6562 3.5625ZM30.6953 4.75L29.0938 5.81774L27.4922 4.75H30.6953ZM14.25 2.375H15.4375V3.5625H14.25V2.375ZM11.875 2.375H13.0625V3.5625H11.875V2.375ZM9.5 2.375H10.6875V3.5625H9.5V2.375ZM24.9375 35.625H5.9375V4.75H24.9375V35.625ZM26.125 5.26567L28.5 6.84903V33.5262L26.125 35.1096V5.26567ZM27.4922 35.625L29.0938 34.5573L30.6953 35.625H27.4922ZM32.0625 35.1093L29.6875 33.526V6.84879L32.0625 5.26543V35.1093Z" fill="black"/>
<path d="M22.5625 30.2812H17.8125C17.655 30.2812 17.504 30.3438 17.3927 30.4552C17.2813 30.5665 17.2188 30.7175 17.2188 30.875V33.25C17.2188 33.4075 17.2813 33.5585 17.3927 33.6698C17.504 33.7812 17.655 33.8438 17.8125 33.8438H22.5625C22.72 33.8438 22.871 33.7812 22.9823 33.6698C23.0937 33.5585 23.1562 33.4075 23.1562 33.25V30.875C23.1562 30.7175 23.0937 30.5665 22.9823 30.4552C22.871 30.3438 22.72 30.2812 22.5625 30.2812ZM21.9688 32.6562H18.4062V31.4688H21.9688V32.6562Z" fill="black"/>
<path d="M10.0938 18.4062C10.1509 18.4062 10.2097 18.3983 10.2674 18.3944L11.6739 22.2628C11.6114 22.4555 11.5791 22.6568 11.5781 22.8594C11.5781 24.3576 13.2733 25.5312 15.4375 25.5312C17.6017 25.5312 19.2969 24.3576 19.2969 22.8594C19.296 22.6568 19.2637 22.4556 19.2011 22.263L20.6076 18.3944C20.6653 18.3982 20.7241 18.4062 20.7812 18.4062C21.5683 18.4053 22.3229 18.0922 22.8794 17.5357C23.436 16.9792 23.7491 16.2246 23.75 15.4375V14.25C23.75 14.0925 23.6874 13.9415 23.5761 13.8302C23.4647 13.7188 23.3137 13.6562 23.1562 13.6562H20.373C20.2643 13.4533 20.1436 13.257 20.0115 13.0684C20.0077 13.063 20.0031 13.0585 19.9996 13.0531C20.8799 12.0784 21.3696 10.8133 21.375 9.5C21.375 9.34253 21.3124 9.19151 21.2011 9.08016C21.0897 8.96881 20.9387 8.90625 20.7812 8.90625C20.6238 8.90625 20.4728 8.96881 20.3614 9.08016C20.2501 9.19151 20.1875 9.34253 20.1875 9.5C20.1848 10.4737 19.8396 11.4153 19.2123 12.16C18.1834 11.2132 16.8361 10.6876 15.4378 10.6875C14.0395 10.6874 12.6922 11.2128 11.6631 12.1595C11.036 11.4149 10.6907 10.4735 10.6875 9.5C10.6875 9.34253 10.6249 9.19151 10.5136 9.08016C10.4022 8.96881 10.2512 8.90625 10.0938 8.90625C9.93628 8.90625 9.78525 8.96881 9.6739 9.08016C9.56256 9.19151 9.5 9.34253 9.5 9.5C9.50562 10.8132 9.99554 12.0782 10.8759 13.0526C10.872 13.0581 10.8673 13.0627 10.8635 13.0683C10.7314 13.2569 10.6107 13.4532 10.502 13.6561H7.71875C7.56128 13.6561 7.41026 13.7187 7.29891 13.83C7.18756 13.9414 7.125 14.0924 7.125 14.2499V15.4374C7.1259 16.2245 7.43896 16.9791 7.99551 17.5357C8.55206 18.0922 9.30665 18.4053 10.0938 18.4062ZM22.5625 14.8438V15.4375C22.5611 15.8817 22.3935 16.3093 22.0926 16.6361C21.7917 16.9629 21.3793 17.1652 20.9367 17.2031C21.0771 16.4191 21.0444 15.6138 20.841 14.8438H22.5625ZM15.4375 24.3438C13.8629 24.3438 12.7656 23.5615 12.7656 22.8594C12.7656 22.1572 13.8629 21.375 15.4375 21.375C17.0121 21.375 18.1094 22.1572 18.1094 22.8594C18.1094 23.5615 17.0121 24.3438 15.4375 24.3438ZM16.3088 11.9666C17.4164 12.1826 18.3959 12.8223 19.0388 13.7496C19.3174 14.1485 19.5283 14.5906 19.6632 15.0581C19.2899 15.3039 18.8532 15.4357 18.4062 15.4375C17.7766 15.4368 17.1729 15.1863 16.7277 14.7411C16.2824 14.2959 16.032 13.6922 16.0312 13.0625C16.0321 12.6799 16.1275 12.3035 16.3088 11.9666ZM11.8362 13.7496C12.2012 13.2225 12.6786 12.7829 13.2341 12.4627C13.7896 12.1425 14.4093 11.9496 15.0484 11.8979C14.9144 12.2716 14.8452 12.6655 14.8438 13.0625C14.8448 14.007 15.2205 14.9125 15.8883 15.5804C16.5562 16.2483 17.4617 16.624 18.4062 16.625C18.9001 16.62 19.3873 16.5102 19.8355 16.3028C19.8308 16.8048 19.7408 17.3024 19.5694 17.7742L18.3582 21.0986C17.513 20.4785 16.4853 20.1579 15.4375 20.1875C14.3888 20.1578 13.3603 20.4789 12.5148 21.1001L11.3056 17.7742C11.0594 17.1109 10.9791 16.3975 11.0715 15.6961C11.164 14.9946 11.4265 14.3264 11.8362 13.7496ZM8.3125 14.8438H10.034C9.83056 15.6138 9.79789 16.4191 9.93831 17.2031C9.49571 17.1652 9.08335 16.9629 8.78244 16.6361C8.48153 16.3093 8.31388 15.8817 8.3125 15.4375V14.8438Z" fill="black"/>
<path d="M12.4688 32.6562H8.3125C8.15503 32.6562 8.00401 32.7188 7.89266 32.8302C7.78131 32.9415 7.71875 33.0925 7.71875 33.25C7.71875 33.4075 7.78131 33.5585 7.89266 33.6698C8.00401 33.7812 8.15503 33.8438 8.3125 33.8438H12.4688C12.6262 33.8438 12.7772 33.7812 12.8886 33.6698C12.9999 33.5585 13.0625 33.4075 13.0625 33.25C13.0625 33.0925 12.9999 32.9415 12.8886 32.8302C12.7772 32.7188 12.6262 32.6562 12.4688 32.6562Z" fill="black"/>
<path d="M12.4688 30.2812H8.3125C8.15503 30.2812 8.00401 30.3438 7.89266 30.4552C7.78131 30.5665 7.71875 30.7175 7.71875 30.875C7.71875 31.0325 7.78131 31.1835 7.89266 31.2948C8.00401 31.4062 8.15503 31.4688 8.3125 31.4688H12.4688C12.6262 31.4688 12.7772 31.4062 12.8886 31.2948C12.9999 31.1835 13.0625 31.0325 13.0625 30.875C13.0625 30.7175 12.9999 30.5665 12.8886 30.4552C12.7772 30.3438 12.6262 30.2812 12.4688 30.2812Z" fill="black"/>
</svg>
