<svg width="38" height="38" viewBox="0 0 38 38" fill="none" xmlns="http://www.w3.org/2000/svg">
<path d="M34.3707 18.4285L7.49609 29.1383C10.6801 33.0274 17.3004 34.3484 23.7574 32.0106C30.6375 29.5317 35.009 23.7426 34.3707 18.4285Z" fill="#FFCDAB"/>
<path d="M34.3707 18.4285L30.1847 20.0984C29.8433 29.2645 15.4523 33.057 15.4226 33.0645C18.0277 33.3613 20.9074 33.0496 23.7574 32.018C30.6375 29.5317 35.0089 23.7426 34.3707 18.4285Z" fill="#EDAB7E"/>
<path d="M30.3183 7.67423C26.741 4.39376 20.3508 3.45118 14.0793 5.71486C6.4199 8.48321 1.67732 15.0442 2.96873 20.759C2.96873 20.759 3.65896 25.8578 6.3531 28.7152C6.86521 29.257 7.72615 29.2719 8.26795 28.7598L8.73552 28.3219C9.2031 27.884 9.9156 27.832 10.4426 28.1957L13.4484 30.259C14.0125 30.6449 14.7844 30.5559 15.2371 30.0438L16.1351 29.0418C16.5062 28.6336 17.0851 28.4852 17.6047 28.6633L20.5215 29.6875C21.1672 29.9176 21.8871 29.6281 22.1988 29.0121L22.941 27.5277C23.223 26.9637 23.8465 26.6668 24.4625 26.8078L27.0601 28.0399C27.8394 28.218 28.6039 27.6836 28.7152 26.8895L28.5668 24.3289C28.6633 23.6164 29.2941 23.1043 30.0066 23.1488L30.7265 23.1934C31.5504 23.2453 32.2258 22.5625 32.1812 21.7461L32.0847 20.2469C32.0328 19.4602 32.6637 18.7922 33.4504 18.7922C34.2371 18.7922 34.8605 18.1317 34.816 17.3524C34.6676 15.0367 33.9105 10.4426 30.3183 7.67423ZM19.4898 20.1504C16.6547 21.2934 13.8344 20.9223 13.1812 19.3117C12.5281 17.7012 14.3019 15.4672 17.1297 14.3242C19.9574 13.1813 22.7851 13.5524 23.4383 15.1629C24.0914 16.7734 22.325 19.0074 19.4898 20.1504Z" fill="#FF6E94"/>
<path d="M26.125 27.6019L27.0527 28.0398C27.832 28.2179 28.5965 27.6836 28.7078 26.8894L28.5594 24.3289C28.5742 24.2027 28.6187 24.084 28.6707 23.9652C27.4164 26.1621 26.125 27.6019 26.125 27.6019Z" fill="#CE5184"/>
<path d="M30.3183 7.67422C28.0101 5.55157 24.5218 4.41602 20.655 4.49024C21.3898 4.58672 26.5554 5.46992 29.9917 12.0383C32.1144 16.1055 30.5335 20.6254 28.7968 23.7426C29.064 23.3641 29.5093 23.1266 29.9992 23.1563L30.7191 23.2008C31.5429 23.2527 32.2183 22.5699 32.1738 21.7535L32.0773 20.2543C32.0253 19.4676 32.6562 18.7996 33.4429 18.7996C34.2296 18.7996 34.8531 18.1391 34.8085 17.3598C34.6675 15.0367 33.9105 10.4426 30.3183 7.67422Z" fill="#CE5184"/>
<path d="M13.1441 19.1781C12.6394 17.5824 14.3835 15.4375 17.137 14.3242C19.8534 13.2257 22.555 13.53 23.3491 14.9699C23.5198 14.4207 23.5273 13.8937 23.3343 13.4113C22.6144 11.63 19.4898 11.2218 16.3577 12.4836C13.2257 13.7527 11.2663 16.2168 11.9862 17.998C12.1941 18.5101 12.6023 18.9035 13.1441 19.1781Z" fill="#CE5184"/>
<path d="M18.8886 17.1594C20.5585 16.484 22.2136 16.343 23.4382 16.6621C23.6163 16.1426 23.6312 15.6305 23.4456 15.1703C22.7925 13.5598 19.9722 13.1887 17.137 14.3316C14.3019 15.4746 12.5355 17.7086 13.1886 19.3191C13.4558 19.9797 14.0941 20.4324 14.9476 20.6551C15.3855 19.3488 16.8624 17.9758 18.8886 17.1594Z" fill="#EDAB7E"/>
<path d="M16.3058 21.234C16.0163 21.234 15.7343 21.2192 15.4671 21.182C14.1163 21.0039 13.1663 20.3953 12.7952 19.4676C12.4241 18.5399 12.6765 17.4488 13.5226 16.3801C14.3167 15.3781 15.5413 14.5098 16.9738 13.9309C18.4136 13.352 19.898 13.1219 21.1597 13.2926C22.5105 13.4707 23.4605 14.0793 23.8316 15.007C24.2027 15.9348 23.9503 17.0258 23.1042 18.0945C22.3101 19.0965 21.0855 19.9649 19.6531 20.5438C18.5249 20.9965 17.3597 21.234 16.3058 21.234ZM20.321 14.0793C19.371 14.0793 18.3245 14.2945 17.2929 14.7102C15.9866 15.2371 14.8808 16.0164 14.1831 16.8996C13.5374 17.716 13.3222 18.5176 13.5745 19.1485C13.8269 19.7793 14.5394 20.2024 15.5784 20.3434C16.6991 20.4918 18.0351 20.284 19.3413 19.757C20.6476 19.2301 21.746 18.4508 22.4511 17.5676C23.0968 16.7512 23.312 15.9496 23.0597 15.3188C22.8074 14.6879 22.0949 14.2649 21.0558 14.1238C20.8183 14.0942 20.5734 14.0793 20.321 14.0793Z" fill="#3F0F33"/>
<path d="M28.8859 15.6899C28.8265 15.6899 28.7672 15.675 28.7078 15.6527C28.5 15.5563 28.4109 15.3039 28.5074 15.0887L29.2719 13.4856C29.3683 13.2777 29.6207 13.1887 29.8359 13.2852C30.0437 13.3817 30.1328 13.634 30.0363 13.8492L29.2719 15.4524C29.1976 15.6008 29.0418 15.6899 28.8859 15.6899Z" fill="white"/>
<path d="M24.2546 9.7746C24.121 9.7746 23.9948 9.71523 23.9132 9.59648L22.8815 8.14921C22.748 7.96367 22.7925 7.69648 22.978 7.56288C23.1636 7.42929 23.4308 7.47382 23.5644 7.65937L24.596 9.10663C24.7296 9.29218 24.6851 9.55937 24.4995 9.69296C24.4253 9.75234 24.3437 9.7746 24.2546 9.7746Z" fill="white"/>
<path d="M15.4226 10.2793C15.3335 10.2793 15.2445 10.2496 15.1702 10.1902C14.9847 10.0492 14.9476 9.78199 15.0886 9.59645L16.1722 8.18629C16.3132 8.00074 16.5804 7.96363 16.7659 8.10465C16.9515 8.24566 16.9886 8.51285 16.8476 8.6984L15.764 10.1086C15.6749 10.2273 15.5488 10.2793 15.4226 10.2793Z" fill="white"/>
<path d="M9.38121 14.6434C9.19566 14.6434 9.02496 14.5172 8.97301 14.3242L8.54254 12.6023C8.48316 12.3797 8.62418 12.1496 8.84684 12.0902C9.07691 12.0383 9.29957 12.1719 9.35895 12.3945L9.78941 14.1164C9.84879 14.3391 9.70777 14.5691 9.48512 14.6285C9.44801 14.6359 9.4109 14.6434 9.38121 14.6434Z" fill="white"/>
<path d="M7.21398 21.2785C7.1175 21.2785 7.02101 21.2488 6.93937 21.182L5.58117 20.0391C5.40304 19.8906 5.38078 19.6234 5.52922 19.4453C5.67765 19.2672 5.94484 19.2449 6.12297 19.3934L7.48117 20.5363C7.65929 20.6848 7.68156 20.9519 7.53312 21.1301C7.45148 21.2266 7.33273 21.2785 7.21398 21.2785Z" fill="white"/>
<path d="M12.2163 25.7613C12.1941 25.7613 12.1644 25.7613 12.1421 25.7539C11.912 25.7168 11.7636 25.4941 11.8007 25.264L12.1124 23.5125C12.1495 23.2824 12.3722 23.1265 12.6023 23.1711C12.8324 23.2082 12.9808 23.4308 12.9437 23.6609L12.632 25.4125C12.5949 25.6203 12.4167 25.7613 12.2163 25.7613Z" fill="white"/>
<path d="M22.0058 23.5793C21.9167 23.5793 21.8203 23.5496 21.746 23.4902C21.5605 23.3492 21.5308 23.082 21.6718 22.8965L22.7703 21.5012C22.9113 21.3156 23.1785 21.2859 23.364 21.4269C23.5496 21.568 23.5792 21.8351 23.4382 22.0207L22.3398 23.416C22.2507 23.5199 22.1246 23.5793 22.0058 23.5793Z" fill="white"/>
<path d="M14.5171 5.52185C14.5171 5.52185 0.42298 11.4297 4.21556 25.2344C4.21556 25.2344 -2.70905 12.9066 14.5171 5.52185Z" fill="white"/>
<path d="M17.3301 33.584C13.159 33.584 9.39607 32.1218 7.1695 29.4054C7.02107 29.2273 7.05075 28.9601 7.22888 28.8117C7.407 28.6632 7.67419 28.6929 7.82263 28.8711C10.9695 32.7082 17.4636 33.8363 23.6164 31.6172C30.2367 29.2273 34.5785 23.698 33.955 18.4804C33.9254 18.2504 34.0886 18.0425 34.3261 18.0129C34.5562 17.9906 34.764 18.1464 34.7937 18.3839C35.4691 23.9949 30.8898 29.8953 23.9058 32.4113C21.709 33.2054 19.4676 33.584 17.3301 33.584Z" fill="#3F0F33"/>
<path d="M14.2203 30.9195C13.8714 30.9195 13.5152 30.8156 13.2109 30.6078L10.205 28.5445C9.84136 28.2922 9.3441 28.3293 9.02496 28.6336L8.55738 29.0715C7.83746 29.7394 6.71676 29.7098 6.04879 29.0047C3.34722 26.1473 2.61246 21.234 2.56051 20.8332C1.21715 14.8141 6.10816 8.14921 13.9457 5.32147C20.2246 3.05038 26.7484 3.84452 30.5781 7.3328H30.5855C34.2742 10.1754 35.0832 14.8141 35.239 17.3301C35.2687 17.8199 35.098 18.2949 34.7566 18.6512C34.4226 19.0074 33.9402 19.2152 33.4503 19.2152C33.1832 19.2152 32.9457 19.3191 32.7601 19.5121C32.582 19.7051 32.4929 19.9574 32.5078 20.2172L32.6043 21.7164C32.6339 22.2285 32.4484 22.7332 32.0847 23.0894C31.7211 23.4531 31.2164 23.6387 30.7043 23.609L29.9843 23.5644C29.5019 23.5348 29.0789 23.8762 28.9898 24.3437L29.1382 26.8598V26.9414C29.0714 27.4387 28.7968 27.884 28.3886 28.166C27.9804 28.448 27.4683 28.5519 26.9785 28.4406C26.9488 28.4332 26.9191 28.4258 26.8894 28.4109L24.3363 27.2012C23.9207 27.1269 23.5125 27.3348 23.3269 27.7059L22.5847 29.1902C22.1839 29.9918 21.2414 30.3777 20.3953 30.0809L17.4785 29.0566C17.1148 28.9305 16.7214 29.0344 16.4617 29.3164L15.5636 30.3184C15.2074 30.7191 14.7175 30.9195 14.2203 30.9195ZM9.67808 27.5351C10.0343 27.5351 10.3832 27.6391 10.6875 27.8469L13.6933 29.9101C14.0867 30.1773 14.6136 30.118 14.9328 29.7617L15.8308 28.7598C16.3132 28.218 17.0703 28.025 17.7531 28.2699L20.6699 29.2941C21.1152 29.45 21.6125 29.2496 21.8277 28.8266L22.5699 27.3422C22.941 26.6074 23.7574 26.2141 24.5589 26.3996C24.5886 26.407 24.6183 26.4144 24.648 26.4293L27.2011 27.6391C27.4535 27.6836 27.6984 27.6316 27.9062 27.4832C28.114 27.3348 28.255 27.1195 28.2996 26.8746L28.1511 24.3586C28.1511 24.3289 28.1511 24.3066 28.1511 24.2769C28.2773 23.3492 29.1086 22.6738 30.0363 22.7332L30.7562 22.7777C31.0308 22.7926 31.2906 22.6961 31.4836 22.5031C31.6765 22.3101 31.773 22.043 31.7582 21.7758L31.6617 20.2766C31.632 19.7867 31.8101 19.2969 32.1441 18.9406C32.4781 18.5844 32.9531 18.3766 33.4429 18.3766C33.7101 18.3766 33.955 18.2726 34.1332 18.0797C34.3113 17.8867 34.4003 17.6418 34.3855 17.382C34.2371 15.0219 33.4875 10.6652 30.0957 8.02304C30.0734 8.00819 30.0511 7.99335 30.0363 7.9785C26.4961 4.7203 20.1429 3.97069 14.2277 6.10819C6.9023 8.7578 2.13746 15.1555 3.37691 20.6699C3.37691 20.6848 3.38433 20.6922 3.38433 20.707C3.39176 20.759 4.08941 25.7094 6.65738 28.4258C7.00621 28.7969 7.59996 28.8117 7.97847 28.4555L8.44605 28.0176C8.78746 27.6984 9.23277 27.5351 9.67808 27.5351Z" fill="#3F0F33"/>
<path d="M16.3578 21.1449C15.8902 21.1449 15.4375 21.1004 15.007 21.0113C13.53 20.707 12.4687 19.9277 12.0086 18.7996C11.734 18.1242 11.7043 17.3597 11.9269 16.5953C11.9863 16.38 12.0679 16.1648 12.1644 15.9496C12.2609 15.7343 12.5132 15.6453 12.7211 15.7418C12.9363 15.8382 13.0254 16.0906 12.9289 16.2984C12.8472 16.4765 12.7804 16.6546 12.7359 16.8254C12.5652 17.4191 12.5875 17.9832 12.7879 18.4879C13.1293 19.3414 13.9754 19.9425 15.1703 20.1875C16.4246 20.4472 17.8941 20.2691 19.3043 19.6976C22.1617 18.5398 23.8836 16.1203 23.1414 14.2945C22.8668 13.6117 22.2656 13.0847 21.4195 12.7804C21.2043 12.6988 21.0855 12.4613 21.1672 12.2386C21.2488 12.0234 21.4863 11.9046 21.709 11.9863C22.7925 12.3796 23.557 13.0699 23.9281 13.9754C24.841 16.2316 22.9113 19.1484 19.6234 20.4769C18.5398 20.9148 17.4191 21.1449 16.3578 21.1449Z" fill="#3F0F33"/>
<path d="M14.7992 21.0336C14.7472 21.0336 14.6953 21.0262 14.6433 21.0039C14.4281 20.9223 14.3242 20.6774 14.4058 20.4547C14.9625 19.0445 16.5433 17.6641 18.5398 16.8551C20.2914 16.15 22.1469 15.9719 23.5125 16.3801C23.7351 16.4469 23.8613 16.6844 23.7945 16.907C23.7277 17.1297 23.4902 17.2559 23.2676 17.1891C22.0801 16.8328 20.4324 17.0035 18.8515 17.6418C17.0629 18.3617 15.6601 19.5641 15.1851 20.7664C15.1258 20.9297 14.9699 21.0336 14.7992 21.0336Z" fill="#3F0F33"/>
</svg>
