<svg width="38" height="38" viewBox="0 0 38 38" fill="none" xmlns="http://www.w3.org/2000/svg">
<g clip-path="url(#clip0_18_211)">
<path d="M16.283 16.5546H21.5581V35.511H16.283V16.5546Z" fill="#95D528"/>
<path d="M19.6599 16.5546H21.5581V35.511H19.6599V16.5546Z" fill="#89C627"/>
<path d="M30.1833 19.5094L26.801 22.4745C24.7675 24.2571 23.2369 26.5396 22.3486 29.0696C22.564 27.0013 23.0327 24.9631 23.7437 23.0086L26.0831 16.578L23.9739 15.8107L21.6345 22.2413C20.8393 24.4271 20.3227 26.7044 20.097 29.0194L19.9768 30.2525C19.9045 30.9945 19.2925 31.5856 18.547 31.5897C17.7472 31.5943 17.0974 30.9472 17.0974 30.1484V20.7488H14.8529V27.6284C14.2124 26.2456 13.4136 24.9353 12.4691 23.7293L9.42406 19.8412L7.65698 21.2251L10.702 25.1132C12.5705 27.499 13.7983 30.3437 14.2527 33.3399L14.638 35.8798C14.7065 36.3316 15.095 36.6655 15.5519 36.6655H22.3491C22.8018 36.6655 23.188 36.3376 23.2613 35.8909L23.8882 32.0724C24.3902 29.0143 25.95 26.2051 28.2804 24.1621L31.6628 21.197L30.1833 19.5094Z" fill="#B9EA6A"/>
<path d="M30.1833 19.5093L26.8009 22.4745C24.7675 24.257 23.2369 26.5396 22.3485 29.0695C22.4554 28.0439 22.6247 27.0256 22.8547 26.0213C21.4926 27.7775 20.5752 29.8597 20.2119 32.0724L19.5851 35.8909C19.5117 36.3377 19.1256 36.6656 18.6729 36.6656H22.3491C22.8019 36.6656 23.188 36.3377 23.2614 35.8909L23.8882 32.0724C24.3902 29.0143 25.9501 26.2051 28.2805 24.1622L31.6628 21.1971L30.1833 19.5093Z" fill="#A1E42C"/>
<path d="M31.5706 11.3905C31.3544 11.3871 31.1408 11.3953 30.9304 11.4144C30.0865 11.4911 29.3522 10.8542 29.3006 10.0084C29.2994 9.98899 29.2981 9.96954 29.2967 9.9501C29.089 7.00799 26.7169 4.63685 23.7746 4.43164C23.2655 4.39616 22.7692 4.42496 22.2925 4.51038C21.7197 4.6131 21.1399 4.37122 20.8073 3.89363C19.7274 2.34305 17.9308 1.32974 15.8981 1.33449C13.8652 1.33924 12.0724 2.36071 10.9996 3.91641C10.6906 4.36447 10.1536 4.60783 9.61355 4.53948C9.36425 4.50793 9.11012 4.49183 8.85206 4.49242C5.55868 4.50014 2.89512 7.17625 2.90284 10.4696C2.90373 10.8499 2.94062 11.2216 3.00986 11.5818C3.10857 12.0949 2.93371 12.6232 2.54473 12.972C1.30454 14.084 0.532736 15.7072 0.56183 17.5096C0.612521 20.649 3.13752 23.2418 6.27474 23.3697C7.81701 23.4325 9.23451 22.9091 10.3251 22.0049C10.8593 21.562 11.6232 21.5634 12.1598 22.0034C13.2327 22.883 14.6172 23.3959 16.1225 23.3498C19.1548 23.2568 21.659 20.857 21.8826 17.8315C21.886 17.7856 21.8888 17.7398 21.8912 17.6942C21.9303 16.9265 22.5775 16.3429 23.3461 16.3432H23.3627C23.5647 16.3428 23.7645 16.3322 23.9612 16.3121C24.7675 16.2296 25.4793 16.8513 25.5203 17.6608C25.5225 17.7042 25.5252 17.7477 25.5283 17.7913C25.7418 20.7575 28.154 23.1354 31.1229 23.3061C34.6484 23.5088 37.555 20.6487 37.4353 17.1446C37.3277 13.9893 34.7274 11.4395 31.5706 11.3905Z" fill="#118E5E"/>
<path d="M37.4355 17.1446C37.407 16.3098 37.2026 15.5181 36.8609 14.8032C35.8608 16.9251 33.6459 18.3626 31.1111 18.2169C28.1422 18.0462 25.73 15.6682 25.5165 12.7021C25.5133 12.6585 25.5107 12.615 25.5084 12.5715C25.4675 11.7621 24.7556 11.1404 23.9494 11.2228C23.7526 11.2429 23.5529 11.2534 23.3509 11.254C23.3453 11.254 23.3398 11.254 23.3343 11.254C22.5657 11.2536 21.9185 11.8372 21.8794 12.6049C21.8771 12.6506 21.8742 12.6964 21.8708 12.7423C21.6471 15.7677 19.143 18.1675 16.1107 18.2605C14.6054 18.3067 13.2209 17.7937 12.148 16.9141C11.6114 16.4741 10.8476 16.4727 10.3133 16.9157C9.22269 17.8198 7.80519 18.3433 6.26292 18.2804C3.99888 18.1881 2.0542 16.8119 1.12773 14.8732C0.751436 15.6711 0.546667 16.5657 0.561956 17.5096C0.612647 20.649 3.13764 23.2418 6.27487 23.3697C7.81714 23.4325 9.23464 22.9091 10.3252 22.0049C10.8594 21.562 11.6233 21.5634 12.16 22.0034C13.2328 22.883 14.6174 23.3959 16.1227 23.3498C19.1549 23.2568 21.6591 20.857 21.8827 17.8315C21.8861 17.7856 21.8889 17.7398 21.8913 17.6941C21.9304 16.9265 22.5776 16.3428 23.3462 16.3432H23.3628C23.5649 16.3428 23.7646 16.3322 23.9613 16.312C24.7677 16.2296 25.4794 16.8512 25.5204 17.6607C25.5226 17.7042 25.5253 17.7477 25.5284 17.7914C25.7419 20.7575 28.1541 23.1355 31.123 23.3061C34.6486 23.5087 37.5551 20.6487 37.4355 17.1446Z" fill="#017B4F"/>
<path d="M37.9963 17.1255C37.9393 15.455 37.2443 13.8842 36.0395 12.7022C34.8349 11.5205 33.2509 10.8555 31.5795 10.8295C31.3461 10.8256 31.1108 10.8347 30.8798 10.8557C30.626 10.8786 30.3804 10.8002 30.1876 10.6347C29.9927 10.4673 29.8767 10.2328 29.8608 9.97485L29.8566 9.91065C29.8188 9.37442 29.714 8.84435 29.5452 8.33498C29.4477 8.04085 29.1304 7.88121 28.8361 7.97881C28.5419 8.07626 28.3825 8.39369 28.48 8.68789C28.6194 9.10856 28.7059 9.54653 28.7372 9.98999L28.7407 10.0427C28.7752 10.6066 29.0294 11.1192 29.4565 11.4861C29.8815 11.851 30.423 12.0241 30.9815 11.9733C31.173 11.9559 31.3684 11.9486 31.5622 11.9516C34.443 11.9963 36.7766 14.2858 36.8748 17.1638C36.9266 18.681 36.3346 20.1585 35.2507 21.2175C34.1511 22.2917 32.6967 22.8347 31.1554 22.7459C28.4605 22.591 26.282 20.4436 26.0882 17.751C26.0853 17.7114 26.0829 17.6719 26.0809 17.6323C26.0534 17.09 25.8006 16.5755 25.3874 16.2209C24.972 15.8644 24.4455 15.6984 23.9043 15.7538C23.7252 15.7721 23.5426 15.7816 23.3629 15.782H23.3465C23.3462 15.782 23.3459 15.782 23.3456 15.782C22.2698 15.782 21.3848 16.6092 21.331 17.6654C21.3288 17.7069 21.3262 17.7484 21.3232 17.7901C21.1221 20.5096 18.8302 22.7053 16.1055 22.7889C14.7993 22.8293 13.5237 22.3958 12.5158 21.5694C11.7746 20.9617 10.7027 20.9631 9.9671 21.5729C8.93984 22.4244 7.63552 22.8634 6.29773 22.8089C3.44216 22.6925 1.16921 20.3607 1.12305 17.5005C1.10976 16.6792 1.27609 15.8885 1.61727 15.1502C1.7473 14.8689 1.62462 14.5354 1.34326 14.4055C1.06189 14.2755 0.728502 14.3981 0.598545 14.6795C0.186038 15.5722 -0.015021 16.5274 0.00101024 17.5187C0.0278774 19.1811 0.687756 20.7585 1.85923 21.9605C3.0802 23.2133 4.77083 23.9357 6.52076 23.9357C7.29055 23.9357 8.04684 23.8002 8.75815 23.541L10.2603 25.4591C11.699 27.2962 12.7681 29.4645 13.352 31.7298C13.524 32.0684 13.7518 32.2029 14.0354 32.1331C14.3355 32.0557 14.516 31.7497 14.4387 31.4497C13.8165 29.0359 12.6771 26.7251 11.1438 24.7672L9.80063 23.0521C10.1093 22.8726 10.4049 22.6677 10.6833 22.4369C10.6958 22.4266 10.7087 22.4175 10.7215 22.4079L12.0273 24.0753C12.939 25.2394 13.7184 26.5142 14.3439 27.8643C14.5172 28.125 14.7271 28.2289 14.9738 28.1764C15.2309 28.1198 15.4141 27.8918 15.4141 27.6284V23.8907C15.7888 23.9234 16.1629 23.9214 16.5364 23.8848V30.1484C16.5364 30.6854 16.7461 31.1897 17.1268 31.5683C17.5049 31.9443 18.0058 32.1509 18.5387 32.1509H18.5503C19.5801 32.1451 20.4334 31.3524 20.5353 30.3069L20.6555 29.0738C20.8764 26.8074 21.3831 24.5731 22.1617 22.4331L24.1856 16.8698C24.3574 16.8864 24.5203 16.9558 24.6564 17.0725C24.9698 17.3416 24.9511 17.6373 24.9814 17.9649L23.2163 22.8168C22.4906 24.8117 22.0108 26.8959 21.7904 29.0114C21.761 29.2944 21.948 29.5547 22.2257 29.617C22.489 29.6739 22.7065 29.5534 22.878 29.2554C23.7393 26.8022 25.2237 24.6033 27.1708 22.8964L27.5505 22.5635C27.8619 22.7987 28.1951 23.0062 28.5461 23.1832L27.9106 23.7403C25.4828 25.8686 23.8576 28.7955 23.3345 31.9815L22.7076 35.8C22.6787 35.9764 22.5279 36.1045 22.3491 36.1045H15.5519C15.371 36.1045 15.2199 35.9746 15.1927 35.7957L14.8997 33.8639C14.8532 33.5574 14.567 33.3465 14.2608 33.3932C13.9544 33.4397 13.7437 33.7257 13.7902 34.0321L14.0832 35.964C14.1942 36.6957 14.812 37.2267 15.5519 37.2267H22.3491C23.0801 37.2267 23.6965 36.7032 23.815 35.9818L24.4418 32.1634C24.9229 29.2333 26.4175 26.5416 28.6503 24.5842L29.7281 23.6393C30.166 23.7611 30.6216 23.8395 31.0907 23.8664C32.9241 23.9722 34.726 23.299 36.0347 22.0203C37.3439 20.7412 38.0588 18.9572 37.9963 17.1255ZM14.2918 25.3828C13.8711 24.6885 13.4097 24.0203 12.9108 23.3834L12.6112 23.0008C13.1368 23.3124 13.7025 23.5476 14.2918 23.7011V25.3828ZM22.4517 17.7228C22.468 17.4017 22.6653 17.1298 22.9459 16.9952L22.3262 18.6987C22.3819 18.4275 22.4216 18.152 22.4422 17.8731C22.4459 17.8229 22.4491 17.7728 22.4517 17.7228ZM19.5386 28.965L19.4183 30.1981C19.3732 30.6614 18.9891 31.0262 18.544 31.0287C18.3082 31.0294 18.0856 30.9391 17.9182 30.7726C17.7508 30.6062 17.6585 30.3845 17.6585 30.1485V23.6806C18.6931 23.3955 19.6509 22.8554 20.444 22.0955C20.6421 21.9057 20.8259 21.7042 20.997 21.494V22.3598C20.2488 24.4937 19.758 26.714 19.5386 28.965ZM26.431 22.0525C25.3541 22.9966 24.4091 24.0804 23.6193 25.2696C23.8062 24.5708 24.0237 23.8801 24.2709 23.2005L25.4702 19.9038C25.7713 20.6108 26.1933 21.2542 26.7107 21.8073L26.431 22.0525Z" fill="black"/>
<path d="M2.545 13.533C2.67837 13.533 2.81226 13.4858 2.91943 13.3897C3.45062 12.9134 3.69643 12.18 3.56105 11.4758C3.49752 11.1454 3.46487 10.8064 3.46405 10.4682C3.46071 9.02528 4.01943 7.66737 5.03734 6.64464C6.05525 5.6219 7.41056 5.0568 8.85352 5.05346C9.08308 5.05213 9.31538 5.06727 9.54323 5.09606C10.2948 5.19106 11.0298 4.86116 11.4616 4.23483C12.4689 2.77413 14.1279 1.89961 15.8996 1.89546H15.9122C17.6783 1.89546 19.3354 2.76159 20.347 4.2142C20.8039 4.87037 21.6067 5.20324 22.3916 5.06252C22.8314 4.9837 23.2837 4.95965 23.7356 4.99127C25.0861 5.08545 26.3461 5.68662 27.2837 6.68405C27.4959 6.90982 27.851 6.92088 28.0768 6.70862C28.3026 6.49635 28.3136 6.14129 28.1014 5.91544C26.9696 4.71146 25.447 3.98568 23.8138 3.87175C23.2695 3.8339 22.7245 3.86277 22.1937 3.95792C21.8388 4.02175 21.4752 3.87042 21.2679 3.5728C20.0465 1.81886 18.0455 0.773193 15.9122 0.773193C15.9073 0.773193 15.9019 0.773193 15.897 0.773193C13.7574 0.778166 11.754 1.83408 10.5378 3.59766C10.3479 3.87309 10.0129 4.02435 9.68418 3.98256C9.40897 3.94775 9.1288 3.93098 8.851 3.93113C7.10827 3.93521 5.47145 4.61772 4.24209 5.85287C3.01265 7.08802 2.33786 8.72803 2.34194 10.4708C2.3429 10.879 2.38231 11.2884 2.45913 11.6876C2.52058 12.0072 2.41 12.3392 2.17042 12.554C1.93967 12.7609 1.92038 13.1157 2.12722 13.3464C2.23788 13.4702 2.39107 13.5331 2.545 13.533Z" fill="black"/>
<path d="M11.2965 10.5477C11.4526 10.1712 11.2738 9.73939 10.8973 9.58331C10.5207 9.42723 10.089 9.60595 9.93288 9.9825C9.7768 10.3591 9.95552 10.7908 10.3321 10.9469C10.7086 11.103 11.1404 10.9243 11.2965 10.5477Z" fill="black"/>
<path d="M12.7638 9.06512C13.1713 9.06512 13.5016 8.73476 13.5016 8.32724C13.5016 7.91972 13.1713 7.58936 12.7638 7.58936C12.3562 7.58936 12.0259 7.91972 12.0259 8.32724C12.0259 8.73476 12.3562 9.06512 12.7638 9.06512Z" fill="black"/>
<path d="M13.6161 14.2258C14.0184 14.1606 14.2916 13.7817 14.2264 13.3794C14.1612 12.9772 13.7822 12.704 13.38 12.7692C12.9778 12.8344 12.7046 13.2133 12.7698 13.6156C12.835 14.0178 13.2139 14.291 13.6161 14.2258Z" fill="black"/>
<path d="M15.4488 14.2341C15.8563 14.2341 16.1867 13.9038 16.1867 13.4962C16.1867 13.0887 15.8563 12.7584 15.4488 12.7584C15.0413 12.7584 14.7109 13.0887 14.7109 13.4962C14.7109 13.9038 15.0413 14.2341 15.4488 14.2341Z" fill="black"/>
<path d="M19.1915 11.2661C19.4796 10.978 19.4796 10.5108 19.1915 10.2227C18.9034 9.93458 18.4363 9.93458 18.1481 10.2227C17.86 10.5108 17.86 10.978 18.1481 11.2661C18.4363 11.5542 18.9034 11.5542 19.1915 11.2661Z" fill="black"/>
<path d="M32.6441 15.862C33.0463 15.7968 33.3195 15.4179 33.2543 15.0157C33.1891 14.6134 32.8102 14.3402 32.408 14.4054C32.0058 14.4706 31.7325 14.8496 31.7977 15.2518C31.863 15.654 32.2419 15.9272 32.6441 15.862Z" fill="black"/>
<path d="M4.76356 15.8423C5.16008 15.7485 5.40554 15.3511 5.31181 14.9546C5.21808 14.5581 4.82066 14.3126 4.42414 14.4063C4.02762 14.5001 3.78216 14.8975 3.87589 15.294C3.96962 15.6905 4.36704 15.936 4.76356 15.8423Z" fill="black"/>
<path d="M7.65695 20.688C8.06447 20.688 8.39483 20.3576 8.39483 19.9501C8.39483 19.5426 8.06447 19.2122 7.65695 19.2122C7.24943 19.2122 6.91907 19.5426 6.91907 19.9501C6.91907 20.3576 7.24943 20.688 7.65695 20.688Z" fill="black"/>
</g>
<defs>
<clipPath id="clip0_18_211">
<rect width="38" height="38" fill="white"/>
</clipPath>
</defs>
</svg>
